STARTFONT 2.1
COMMENT
COMMENT Converted from OpenType font "Q:\font stuff\winfont\WaveeWeekend-Normal.otf" by "otf2bdf 3.0".
COMMENT
FONT -FreeType-WaveeWeekend Normal-Medium-R-Normal--38-380-72-72-P-169-ISO10646-1
SIZE 38 72 72
FONTBOUNDINGBOX 54 58 -5 -17
STARTPROPERTIES 19
FOUNDRY "FreeType"
FAMILY_NAME "WaveeWeekend Normal"
WEIGHT_NAME "Medium"
SLANT "R"
SETWIDTH_NAME "Normal"
ADD_STYLE_NAME ""
PIXEL_SIZE 32
POINT_SIZE 380
RESOLUTION_X 72
RESOLUTION_Y 72
SPACING "P"
AVERAGE_WIDTH 169
CHARSET_REGISTRY "ISO10646"
CHARSET_ENCODING "1"
FONT_ASCENT 40
FONT_DESCENT 10
COPYRIGHT "-FreeType-WaveeWeekend Normal-Medium-R-Normal--38-380-72-72-P-169-ISO10646-1"
_OTF_FONTFILE "Q:\font stuff\winfont\WaveeWeekend-Normal.otf"
_OTF_PSNAME "WaveeWeekend-Normal"
ENDPROPERTIES
CHARS 244
STARTCHAR 0020
ENCODING 32
SWIDTH 263 0
DWIDTH 10 0
BBX 0 0 0 0
BITMAP
ENDCHAR
STARTCHAR 0021
ENCODING 33
SWIDTH 289 0
DWIDTH 11 0
BBX 6 27 3 2
BITMAP
FC
FC
FC
7C
7C
7C
7C
7C
7C
7C
7C
7C
7C
3C
3C
3C
3C
3C
3C
1C
00
00
38
3C
3C
3C
38
ENDCHAR
STARTCHAR 0022
ENCODING 34
SWIDTH 342 0
DWIDTH 13 0
BBX 9 11 3 15
BITMAP
F780
F780
F780
F780
F780
F780
F780
F780
F780
7780
2100
ENDCHAR
STARTCHAR 0023
ENCODING 35
SWIDTH 842 0
DWIDTH 32 0
BBX 24 27 3 0
BITMAP
018000
03C3C0
03C3C0
03C3C0
03C3C0
03C3C0
03C3C0
03C3C0
73FFFE
FFFFFE
FFFFFE
7FFFFE
03C3C0
03C3C0
03C3C0
7FCFCE
FFFFFF
FFFFFF
FFFFFF
03FFC0
03C3C0
03C3C0
03C3C0
03C3C0
03C3C0
03C3C0
03C3C0
ENDCHAR
STARTCHAR 0024
ENCODING 36
SWIDTH 605 0
DWIDTH 23 0
BBX 19 35 2 -5
BITMAP
008000
03C000
03C000
03C000
1FFC00
3FFF00
7FFF80
FFFFC0
FBC7C0
F3C380
F3C000
FBC000
FFC000
7FC000
7FE000
3FF800
1FFE00
07FF00
01FF80
01DFC0
01CFC0
01C7E0
01C7E0
01C7E0
01C7E0
21C7E0
7DDFC0
7FFFC0
7FFF80
1FFE00
07F800
01C000
01C000
01C000
01C000
ENDCHAR
STARTCHAR 0025
ENCODING 37
SWIDTH 1000 0
DWIDTH 38 0
BBX 36 28 0 -1
BITMAP
1E00000000
3E00078000
3E003F8000
7C7FFF8000
787FF70000
F8FC070000
F0F80F0000
F0F80E0000
F0F81E0000
F0F81C0000
F0781C3F00
787C387F80
787C38FFC0
3CFC78FFC0
3FF870F3E0
1FF8F1E1E0
0FF0E1E1F0
03C1E1E1F0
0001C1E0F0
0003C1E0F0
000381E0F0
000781E0F0
000780F1F0
000F00FDE0
003F007FE0
003E003FE0
003C001FC0
0018000380
ENDCHAR
STARTCHAR 0026
ENCODING 38
SWIDTH 763 0
DWIDTH 29 0
BBX 26 28 1 0
BITMAP
01F80000
07FE0000
1FFF0000
1FFF0000
3F0F8000
3E0F8000
3E070000
3C000000
3E000000
3E000000
1F000000
0F800000
07FC0000
1FFC0000
3F800000
7E000000
7C07FFC0
FC07FFC0
FC07FFC0
FC00FC00
FC007C00
7E007800
7F00F800
3FC3F800
3FFFF000
1FFFE000
07FFC000
01FE0000
ENDCHAR
STARTCHAR 0027
ENCODING 39
SWIDTH 184 0
DWIDTH 7 0
BBX 4 10 3 17
BITMAP
F0
F0
F0
F0
F0
F0
F0
F0
F0
70
ENDCHAR
STARTCHAR 0028
ENCODING 40
SWIDTH 421 0
DWIDTH 16 0
BBX 14 38 2 -9
BITMAP
01C0
03E0
07E0
07E0
0FC0
1F80
1F00
1F00
3E00
3E00
7C00
7C00
7C00
7800
7800
F800
F800
F800
F800
F800
F800
F800
7800
7C00
7C00
7C00
3E00
3E00
1F00
1F80
0F80
0FC0
07E0
03F8
01FC
00FC
0078
0010
ENDCHAR
STARTCHAR 0029
ENCODING 41
SWIDTH 421 0
DWIDTH 16 0
BBX 12 37 2 -8
BITMAP
F000
F800
FC00
FC00
3E00
1F00
1F00
0F80
07C0
07C0
03C0
03E0
01E0
01E0
01F0
00F0
00F0
00F0
00F0
00F0
00F0
00F0
01F0
01F0
01E0
03E0
03E0
07C0
07C0
0FC0
0F80
1F80
3F00
7E00
7C00
7800
3000
ENDCHAR
STARTCHAR 002A
ENCODING 42
SWIDTH 394 0
DWIDTH 15 0
BBX 13 13 1 17
BITMAP
0780
0780
0780
0700
F7F8
FFF8
3FF8
0F80
0FC0
1DE0
3CF0
38F0
0060
ENDCHAR
STARTCHAR 002B
ENCODING 43
SWIDTH 842 0
DWIDTH 32 0
BBX 22 22 5 1
BITMAP
007000
007000
007000
007000
007000
007000
007000
007000
007000
7FFFF8
FFFFFC
FFFFF8
7FFFF8
007000
007000
007000
007000
007000
007000
007000
007000
007000
ENDCHAR
STARTCHAR 002C
ENCODING 44
SWIDTH 263 0
DWIDTH 10 0
BBX 6 10 1 -6
BITMAP
38
FC
FC
7C
3C
38
78
F8
F0
E0
ENDCHAR
STARTCHAR 002D
ENCODING 45
SWIDTH 289 0
DWIDTH 11 0
BBX 9 3 0 8
BITMAP
FF80
FF80
FF80
ENDCHAR
STARTCHAR 002E
ENCODING 46
SWIDTH 263 0
DWIDTH 10 0
BBX 6 5 2 0
BITMAP
70
FC
FC
F8
70
ENDCHAR
STARTCHAR 002F
ENCODING 47
SWIDTH 368 0
DWIDTH 14 0
BBX 11 33 2 -4
BITMAP
0100
03E0
03C0
03C0
03C0
07C0
07C0
0780
0780
0780
0780
0F80
0F00
0F00
0F00
0F00
1E00
1E00
1E00
1E00
1E00
3C00
3C00
3C00
3C00
7C00
7800
7800
7800
F800
F800
F000
F000
ENDCHAR
STARTCHAR 0030
ENCODING 48
SWIDTH 526 0
DWIDTH 20 0
BBX 17 28 2 1
BITMAP
07C000
0FF000
1FF800
3FFC00
3FFE00
7E3E00
7C1F00
7C1F00
7C1F00
FC1F80
F80F80
F80F80
F80F80
F80F80
F80F80
F80F80
F80F80
F80F80
7C0F80
7C0F80
7C0F80
3E0F80
3F0F80
1F9F80
0FFF00
07FF00
03FE00
007800
ENDCHAR
STARTCHAR 0031
ENCODING 49
SWIDTH 526 0
DWIDTH 20 0
BBX 11 28 4 1
BITMAP
0780
0F80
3F80
7F80
FF80
FF80
FF80
E780
0780
0780
0780
0780
0780
0780
0780
07C0
07C0
07C0
07C0
07C0
07C0
07C0
07C0
07C0
07C0
07E0
07E0
01C0
ENDCHAR
STARTCHAR 0032
ENCODING 50
SWIDTH 526 0
DWIDTH 20 0
BBX 19 27 1 0
BITMAP
3FE000
FFF800
FFFC00
F07E00
F01E00
F01E00
701F00
000F00
000F00
001F00
001F00
001E00
003E00
007E00
00FC00
01FC00
01F800
03F000
07F000
0FE000
1FC000
3F8000
7F0080
7FFFE0
FFFFE0
FFFFE0
7FFFE0
ENDCHAR
STARTCHAR 0033
ENCODING 51
SWIDTH 526 0
DWIDTH 20 0
BBX 18 28 1 0
BITMAP
1FE000
7FF800
FFFC00
FFFE00
F87F00
603F00
001F00
001F00
001F00
003F00
007E00
07FE00
07FC00
07FE00
03FF00
001F80
000FC0
0007C0
0007C0
0007C0
0007C0
000FC0
600FC0
FC3F80
FFFF00
7FFE00
3FFC00
0FF000
ENDCHAR
STARTCHAR 0034
ENCODING 52
SWIDTH 526 0
DWIDTH 20 0
BBX 17 30 1 -2
BITMAP
070000
078000
078000
0F8000
0F8000
0F0000
1F0000
1F0000
1F7800
1E7800
3E7800
3E7800
3E7800
7C7800
7C7800
7C7800
7C7800
F87800
F87800
FFFF80
FFFF80
7FFF80
007F80
007800
007800
007800
007800
007800
007C00
007C00
ENDCHAR
STARTCHAR 0035
ENCODING 53
SWIDTH 526 0
DWIDTH 20 0
BBX 18 27 1 0
BITMAP
7FF800
7FFC00
7FFC00
780000
780000
780000
780000
7C0000
7F0000
7FF000
7FFC00
3FFE00
0FFF00
007F00
001F80
001F80
000F80
000FC0
000FC0
000FC0
000FC0
700FC0
FC3F80
FFFF80
7FFF00
3FFE00
07F800
ENDCHAR
STARTCHAR 0036
ENCODING 54
SWIDTH 526 0
DWIDTH 20 0
BBX 18 26 2 0
BITMAP
070000
0F8000
1FC000
3FC000
3F8000
7E0000
7E0000
7C0000
FC0000
FBF000
FFFC00
FFFE00
FFFF00
FFFF80
FC1F80
F80FC0
F807C0
7C07C0
7C07C0
7C07C0
3E0FC0
3F0F80
1FFF80
0FFF00
07FF00
03FC00
ENDCHAR
STARTCHAR 0037
ENCODING 55
SWIDTH 526 0
DWIDTH 20 0
BBX 19 27 -1 0
BITMAP
FFFE00
FFFF00
FFFF00
FFFF00
000F00
000F00
001F00
001E00
001E00
003E00
03FFE0
07FFE0
07FFE0
03FC00
003C00
007C00
007C00
007800
007800
007800
00F800
00F800
00F800
01F000
01F000
01F000
00F000
ENDCHAR
STARTCHAR 0038
ENCODING 56
SWIDTH 526 0
DWIDTH 20 0
BBX 15 28 3 0
BITMAP
1F80
7FE0
7FF0
FDF8
F078
F030
F040
F8F0
7CF0
7DE0
3FE0
1FC0
0F80
1FE0
3FE0
7FF0
7CF8
F87C
F03C
F01C
F01E
F01E
781E
7E3E
3FFC
1FFC
0FF8
03F0
ENDCHAR
STARTCHAR 0039
ENCODING 57
SWIDTH 526 0
DWIDTH 20 0
BBX 18 30 0 -3
BITMAP
018000
0FF800
3FFC00
7C3E00
781F00
F00F80
F00F80
F00780
F007C0
F007C0
7807C0
7807C0
3C0FC0
1F1FC0
0FFFC0
07FFC0
00FFC0
0007C0
000780
000780
000F80
000F80
001F80
001F00
003F00
007F00
007E00
007C00
007C00
003800
ENDCHAR
STARTCHAR 003A
ENCODING 58
SWIDTH 289 0
DWIDTH 11 0
BBX 7 17 1 0
BITMAP
78
7E
FE
7E
18
00
00
00
00
00
00
3C
7C
7E
7E
3E
18
ENDCHAR
STARTCHAR 003B
ENCODING 59
SWIDTH 289 0
DWIDTH 11 0
BBX 6 20 1 -3
BITMAP
78
FC
FC
FC
78
10
00
00
00
00
38
FC
FC
7C
3C
3C
78
F8
F0
E0
ENDCHAR
STARTCHAR 003C
ENCODING 60
SWIDTH 842 0
DWIDTH 32 0
BBX 24 21 2 1
BITMAP
00000E
00007E
0001FF
0007FE
003FF8
00FFE0
03FF00
0FFC00
3FF000
7FC000
7F0000
FF8000
FFE000
3FFC00
0FFF00
01FFC0
007FF0
000FFC
0003FC
0000FC
000038
ENDCHAR
STARTCHAR 003D
ENCODING 61
SWIDTH 921 0
DWIDTH 35 0
BBX 25 10 3 6
BITMAP
FFFFFE00
FFFFFF00
FFFFFF00
7FFFFE00
00000000
00000000
00000000
3FFFFF00
7FFFFF80
7FFFFF80
ENDCHAR
STARTCHAR 003E
ENCODING 62
SWIDTH 868 0
DWIDTH 33 0
BBX 23 20 5 1
BITMAP
780000
FF0000
FFE000
7FF800
0FFE00
01FFC0
003FF0
000FF8
0003FC
0000FE
0003FE
000FF8
003FE0
00FF80
03FE00
1FF800
3FE000
3F8000
3F0000
1C0000
ENDCHAR
STARTCHAR 003F
ENCODING 63
SWIDTH 421 0
DWIDTH 16 0
BBX 12 27 3 1
BITMAP
3F80
7FC0
7FE0
FFF0
F9F0
F0F0
F0F0
F0F0
60F0
01F0
01E0
03E0
03E0
07C0
07C0
0FC0
0F80
0F80
0F80
0F80
0700
0000
0F00
1F80
1F80
1F80
0700
ENDCHAR
STARTCHAR 0040
ENCODING 64
SWIDTH 1052 0
DWIDTH 40 0
BBX 27 25 7 1
BITMAP
003FE000
01FFF800
07C03E00
0F000F00
1E000380
3C0001C0
781F31C0
707FF8C0
70F8F8E0
E0F070E0
E1F070E0
E1E070E0
E1E070E0
E1E0E1C0
E1E0E3C0
E1F1E780
70FFFF80
707FFF00
783E7C00
38000000
3C000000
1F000700
0FE07F00
03FFFE00
007FF000
ENDCHAR
STARTCHAR 0041
ENCODING 65
SWIDTH 657 0
DWIDTH 25 0
BBX 25 28 2 0
BITMAP
00030000
001F8000
007F8000
01FF8000
03FE0000
07F87000
0FE07800
1FC0F800
3F80F800
3F00F800
7E00F000
7C00F000
7C00F000
FC00F000
F801F000
F801F000
F801F000
F801F000
F803F000
F803F000
F803F000
F8077000
F80F7000
7C1E7800
3FFE7800
3FFC3F00
0FF83F80
07E00F80
ENDCHAR
STARTCHAR 0042
ENCODING 66
SWIDTH 684 0
DWIDTH 26 0
BBX 23 29 2 -2
BITMAP
030F80
07BFE0
07FFF0
03FFF8
03F8F8
03F0FC
03F07C
07F07C
0FF07C
1FF078
1FF0F8
3DF8F0
7DFFF0
79FFE0
78FFE0
F8F1F0
F0F8F8
F0F8F8
F0F87C
F0F87C
F0F87E
F0F07E
F0F07E
F1F0FC
79FFFC
7FFFF8
3FFFE0
3FC000
1F8000
ENDCHAR
STARTCHAR 0043
ENCODING 67
SWIDTH 578 0
DWIDTH 22 0
BBX 21 38 -1 -10
BITMAP
001F00
00FFC0
01FFE0
03FFF0
07F1F0
0FE0F0
0FC0F0
1F80F0
1F01F0
3F03E0
3E07E0
3E0FC0
7E1F80
7C1F00
7C0600
7C0000
FC0000
F80000
F80000
F80000
F80000
F80000
F80000
F80000
F80000
F80078
F80078
7C00F8
7C00F8
7C00F8
7E01F0
3F01F0
3F87E0
1FFFE0
0FFFC0
07FF80
03FF00
00FC00
ENDCHAR
STARTCHAR 0044
ENCODING 68
SWIDTH 815 0
DWIDTH 31 0
BBX 27 31 3 -2
BITMAP
00060000
000F8000
000F8000
000F8000
01FFE000
07FFF800
0FFFFC00
1F9F7E00
3E1F3F00
7C3E1F00
783E1F80
F83E0F80
F03E0FC0
F03E0FC0
F03E07C0
F07E07C0
F07E07C0
F07E07E0
F07E07E0
F07E07E0
F07C07E0
F07C07E0
F07C07C0
707C07C0
207C0FC0
007E0F80
007E1F80
07FFFF00
0FFFFE00
0FFFF800
0FF00000
ENDCHAR
STARTCHAR 0045
ENCODING 69
SWIDTH 552 0
DWIDTH 21 0
BBX 19 38 1 -9
BITMAP
00F800
03FE00
07FF00
0FFF80
1FE7C0
1F83C0
3F01E0
3F01C0
3E0000
3E0000
3E0000
3E0000
3E0000
3E0000
1FFC00
1FFE00
0FFE00
0FFC00
1FF800
1F0000
3E0000
3E0000
7E0000
7C0000
FC00C0
FC01E0
FC03E0
FC03E0
FC03E0
FC03E0
FC07C0
FE0FC0
7FBF80
7FFF80
3FFF00
1FFE00
0FF800
008000
ENDCHAR
STARTCHAR 0046
ENCODING 70
SWIDTH 684 0
DWIDTH 26 0
BBX 27 34 -2 -7
BITMAP
7FFE0000
FFFFC000
FFFFE000
F81FF000
F803F000
7C01F000
3C01F000
1C01F000
0001F000
0001F000
0001F000
0001F000
0001F000
0001F000
003FFC00
00FFFF80
00FFFFC0
00FFFFE0
00F1F1C0
0061F000
0001F000
0001F000
0001F000
0003F000
0003E000
0003E000
1803E000
3C03E000
3E07E000
3F8FC000
1FFFC000
0FFF8000
07FF8000
01FE0000
ENDCHAR
STARTCHAR 0047
ENCODING 71
SWIDTH 657 0
DWIDTH 25 0
BBX 26 35 -3 -6
BITMAP
0007E000
001FF000
001FF000
E03FF800
FCFFF000
FFFFF000
FFFFE000
7FF00000
00F00380
00F007C0
01F007C0
01F007C0
01F00FC0
01F00FC0
01F00FC0
00F81FC0
00FC7FC0
00FFFFC0
007FF7C0
003FE7C0
001FC7C0
000007C0
000007C0
000007C0
000007C0
00C007C0
03E007C0
03E00780
03F00F80
01F00F80
01FC1F00
00FFFF00
007FFE00
003FFC00
000FF000
ENDCHAR
STARTCHAR 0048
ENCODING 72
SWIDTH 763 0
DWIDTH 29 0
BBX 32 30 -2 0
BITMAP
7FF003C0
FFFC07C0
FFFE07C0
F8FF07C0
F01F07C0
F00F07C0
700F07C0
000F07C0
000F07C0
000F07C0
000F07C0
000F07C0
000FFFC0
001FFFC0
00FFFFC0
01FFFFC0
03FF07C0
07EF87C0
0F8F87C0
0F8F87C0
0F0F87C0
0F0F83C0
0F0F83E0
0F1F83E0
0F9F03F0
0FFF01F0
07FE01FF
07FE00FF
03FC007F
00F0001F
ENDCHAR
STARTCHAR 0049
ENCODING 73
SWIDTH 526 0
DWIDTH 20 0
BBX 15 33 3 -5
BITMAP
0780
1FC0
1FE0
3DE0
78F0
78F0
7878
7078
7078
F078
F83C
783C
783C
783C
783C
7C3C
3E3C
3E3E
1FBE
1FFE
0FFE
07FE
01FC
007C
003C
E03C
F03C
F878
7CF8
7FF0
3FE0
1FC0
0600
ENDCHAR
STARTCHAR 004A
ENCODING 74
SWIDTH 526 0
DWIDTH 20 0
BBX 21 37 0 -9
BITMAP
038000
0FE000
1FF000
3FF800
7FF800
7E7C00
7E7C00
7E3C00
FC3E00
FC3E00
FC3E00
FC1E00
FE1E00
7E1E00
7E1E00
7E1E00
3E1F00
3F1F00
1F9F00
0FDF00
07FF00
01FF00
007F00
001E00
031E00
0FFE00
1FFFF8
3FFFF8
3E3FC0
7C1E00
7C1E00
7C1E00
3C3C00
3E3C00
3FF800
1FF000
07C000
ENDCHAR
STARTCHAR 004B
ENCODING 75
SWIDTH 763 0
DWIDTH 29 0
BBX 30 31 0 -1
BITMAP
000000E0
3FF801F0
7FFC01F8
F8FE03F8
F81F03F0
7C0F03E0
7E0F07C0
3E0F8780
040F8F80
000F8F00
000F8F00
000F9E00
000F9E00
000FBE00
000FFE00
000FFF80
000FFF80
000FFFC0
000FF7C0
000FE7C0
000F87C0
000F83E0
000F03E0
401F03E0
E01F03E0
F01F03E0
FC3E03E0
7FFC01F0
3FF800FC
07E0007C
0000000C
ENDCHAR
STARTCHAR 004C
ENCODING 76
SWIDTH 657 0
DWIDTH 25 0
BBX 27 31 0 -1
BITMAP
0000FC00
0001FE00
0001FF00
0C03E780
1E03C780
3F03C780
1FC3C780
0FFFDF80
07FFFF00
03FFFE00
007FFC00
0003C000
0003C000
0003C000
0003C000
0003C000
0003C000
0003C000
0F03C000
3FE3C000
7FFFC000
FFFFC000
FE7FC000
F80FE000
F803F000
FE0FFC00
7FFFFFC0
7FFF7FE0
3FFE3FC0
1FFC0FC0
03E00000
ENDCHAR
STARTCHAR 004D
ENCODING 77
SWIDTH 1210 0
DWIDTH 46 0
BBX 46 28 1 -1
BITMAP
0F800F003C00
3FE01F80FE00
7FF03FC1FF00
FFF87FE3FF00
FCF87FE3FF00
F83CF9E78F80
F03CF1E70F80
F01DE0F70F80
F01DE0FE0F80
F81DC0FE0F80
F80FC0FC0F80
7C0FC0FC0F80
7F0F80FC0F80
3F0F80FC0F80
1F0F80FC0F80
070F80F80F80
000F00F81F80
000F00F81F80
000F00F81F80
000F00F81F80
000F00F81F80
000F00F80F80
000F00F80F80
000F01F80F80
001F01F00FC0
001F01F007E0
000F01F003FC
000E00E000F8
ENDCHAR
STARTCHAR 004E
ENCODING 78
SWIDTH 868 0
DWIDTH 33 0
BBX 32 29 1 -1
BITMAP
1F801F00
7FC03F80
7FE07FC0
FFF07FC0
F8F8FFE0
F078E3E0
F038C1E0
F03DC1F0
F03DC1F0
F81D80F0
FC1F80F0
7E1F81F0
7F1F81F0
3F1F81F0
1F1F01F0
071F01F0
001F01F0
001F01F0
001F01F0
001F01F0
001F01F0
001F01F0
001F01F0
001F01F8
001F00FC
001F00FF
001F007F
001E003F
00040007
ENDCHAR
STARTCHAR 004F
ENCODING 79
SWIDTH 631 0
DWIDTH 24 0
BBX 27 30 0 0
BITMAP
001E0000
007F8000
07FFC000
1FFFE1C0
3FC7F3E0
3FC3F7E0
7FC1FFC0
7FE1FF80
7CE1FF00
FCF9FE00
F87FFC00
F81FFC00
F80FFC00
F8003C00
F8003C00
F8003C00
F8003C00
F8003C00
F8003C00
FC003C00
7C003C00
7E007C00
7E007800
3F007800
3FC0F800
1FFFF000
0FFFF000
07FFE000
01FFC000
007F0000
ENDCHAR
STARTCHAR 0050
ENCODING 80
SWIDTH 684 0
DWIDTH 26 0
BBX 24 39 -1 -7
BITMAP
780000
F80000
FC7F80
7DFFC0
7FFFE0
3FFFF0
1FC1F8
1F80F8
1FC07C
1FC07C
3FC03E
3FE03E
3FE03E
3FE01F
7DF01F
79F01F
78F01F
78F81F
F8F81F
F8F83E
F87C7E
F87FFC
F07FFC
F07FF8
F03FE0
F03E00
F03E00
F83E00
F83E00
F83E00
783E00
783E00
7C7C00
3E7C00
3FFC00
1FF800
1FF800
0FF000
03C000
ENDCHAR
STARTCHAR 0051
ENCODING 81
SWIDTH 710 0
DWIDTH 27 0
BBX 29 38 -1 -8
BITMAP
07F00000
1FFE0000
3FFF8000
3FFFE000
7FFFF000
7E07F800
7C01FC00
7C007E00
7C003E00
7C001F00
3E001F00
3F000F00
1FE00F80
1FF00780
0FF00780
03F00780
00F00780
00000780
00000780
00000780
1FC00F00
3FF80F00
7FFC1F00
FFFE1E00
F83F3E00
F80FFC00
7C07F800
7E0FF000
7FFFE000
3FFFE000
1FFFF000
0FFDF000
03F0F800
0000FE00
00007FF8
00003FF8
00000FF8
000003F0
ENDCHAR
STARTCHAR 0052
ENCODING 82
SWIDTH 684 0
DWIDTH 26 0
BBX 26 31 1 -1
BITMAP
00800000
03C00000
03C38000
03CFE000
03FFF000
03FFF000
03F8F800
01E07800
01E07800
07E07800
0FE07800
1FE07800
1EE0F000
3EE0F000
3CFDE000
7CFFC000
78FFE000
F8FDF000
F860F800
F060F800
F0607800
F0607C00
F0607C00
F0607C00
F0E07C00
F0E03C00
79C03E00
7FC03FC0
3F801FC0
1F000FC0
000001C0
ENDCHAR
STARTCHAR 0053
ENCODING 83
SWIDTH 657 0
DWIDTH 25 0
BBX 26 34 1 -5
BITMAP
01FC0000
07FF0000
0FFF8000
1FFFE000
1F8FE000
3E03F000
3C01F000
3C00F000
3C002000
1E000000
1F000000
0F800000
0FE00000
07F80000
01FE0000
00FF8000
003FE000
000FF000
0003F800
0001FC00
0000FC00
0F803E00
7FF83E00
FFFE3E00
FFFFBE00
F8FFFE00
E01FFE00
F007FFC0
F801FFC0
FE03FFC0
7FFFF9C0
3FFFE000
0FFFC000
00FC0000
ENDCHAR
STARTCHAR 0054
ENCODING 84
SWIDTH 605 0
DWIDTH 23 0
BBX 25 35 -1 -7
BITMAP
0FF80700
3FFFFF80
7FFFFF80
FFFFFF80
FC1FFF80
F801FF00
F801E000
7C01E000
7C00F000
3800F000
0000F000
0000F000
0000F800
0000F800
00007800
00007800
00007800
00007800
00007800
00007800
00007800
00007800
00007800
0F007800
1F007800
1F00F800
1F00F000
1E00F000
1E00F000
1F01F000
1FC3E000
0FFFE000
07FFC000
03FF8000
00FE0000
ENDCHAR
STARTCHAR 0055
ENCODING 85
SWIDTH 921 0
DWIDTH 35 0
BBX 35 30 2 -1
BITMAP
0FC001E000
1FF003E000
3FF803E000
7FF803E000
7C7C03E000
F83C03F000
F03E03F000
F01E03F000
F01E03F000
781E03F000
781E03F000
7F1E03F000
3F1E03F000
1F1E03F000
0E3E03F000
003E07F000
003E07F000
003E07F000
003E07F000
003E07F000
003E0F7800
003E0F7800
003F1F7800
001F3E7C00
001FFE3E00
001FFC3F00
000FFC1FE0
000FF80FE0
0007F007E0
0001C00000
ENDCHAR
STARTCHAR 0056
ENCODING 86
SWIDTH 631 0
DWIDTH 24 0
BBX 25 28 1 0
BITMAP
3C070000
7E0FC000
FE0FE000
FC0FE000
FC07F000
FC07F000
FC03F000
FC00FE00
FC00FF80
FC00FF80
FC00FB80
7C007800
7C007800
7C007800
7C007800
7C00F800
7E00F800
3E00F800
3E00F000
3E01F000
3F01F000
1F03E000
1F87E000
0FFFC000
0FFF8000
07FF0000
03FE0000
00F80000
ENDCHAR
STARTCHAR 0057
ENCODING 87
SWIDTH 894 0
DWIDTH 34 0
BBX 35 31 1 -1
BITMAP
3000010000
7C0007C000
FE0007E000
FE0007F000
FC0007F800
FC0007F800
FC0007F800
F80003FC00
F80001FFC0
F80780FFE0
F807C03FE0
F80FC03FC0
F80FE03C00
F80FE03C00
FC0FE03C00
FC1FE03C00
FC0FE03C00
FC0FE03C00
7C0FE03C00
7E07C07C00
7E07C07C00
7E03807C00
3F07C07800
3F0FE0F800
3F9FF9F800
1FFFFFF000
0FFFFFF000
0FFE7FE000
07FC3FC000
03F00F8000
00C0000000
ENDCHAR
STARTCHAR 0058
ENCODING 88
SWIDTH 736 0
DWIDTH 28 0
BBX 34 36 -5 -8
BITMAP
3F0003F000
3FC007FC00
7FE00FFE00
7FF01FFE00
3FF01F1E00
00F81E0400
00F83E0000
007C3C0000
003E3C0000
003E3C0000
001F780000
001F780000
000FF80000
0007F00000
0007F00000
0003F00000
0003E00000
0001E00000
0001F00000
0001F00000
0003F80000
0003FC0000
0003FE0000
0007DF0000
0007DFC000
0007CFE000
000F87FC00
000F83FFC0
001F80FFC0
001F001FC0
603F000000
F8FE000000
FFFC000000
FFFC000000
7FF0000000
1FC0000000
ENDCHAR
STARTCHAR 0059
ENCODING 89
SWIDTH 894 0
DWIDTH 34 0
BBX 35 43 0 -12
BITMAP
000000F000
07C000F800
1FF001F800
7FF801F800
7FFC00F800
FCFE00F800
F87E00F800
F83E01F800
F03F01F800
F01F01F800
F01F01F800
F81F01F800
F81F01F800
7C1F01F800
7E3F01F800
3E3F03F800
1E3E03FC00
083E03FC00
003E03FC00
003E077C00
003E077C00
003E077C00
003E0F3C00
003E0E3C00
003F1E3C00
003FFE3C00
003FFC3C00
001FF83C60
000FF83FE0
0007F07FE0
0003C1FFE0
000007FE00
00000FFC00
00001FBC00
00003E3C00
00003C7C00
00007C7800
000078F800
00007BF000
00007FF000
00007FC000
00003F8000
00001E0000
ENDCHAR
STARTCHAR 005A
ENCODING 90
SWIDTH 578 0
DWIDTH 22 0
BBX 26 40 -3 -12
BITMAP
03FE0000
1FFF8000
3FFFE000
7FFFF000
7FDFF000
FC01F800
F800F800
F8007800
7C007800
7E007800
3E007800
1E007800
0000F000
0000F000
0001E000
00F3E000
01FFC000
01FF8000
01FFC000
01FFE000
00FBF000
0001F800
0001FC00
0000FC00
0000FE00
00007E00
00007E00
00007E00
003CFC00
03FFFFC0
07FFFFC0
0FE0FFC0
1F807C00
1F80FC00
1F81F800
1FC3F000
1FFFF000
0FFFE000
07FFC000
03FF0000
ENDCHAR
STARTCHAR 005B
ENCODING 91
SWIDTH 421 0
DWIDTH 16 0
BBX 12 36 3 -8
BITMAP
1FE0
7FF0
FFF0
FC00
FC00
FC00
FC00
FC00
FC00
FC00
FC00
FC00
FC00
FC00
FC00
FC00
FC00
FC00
FC00
FC00
FC00
FC00
FC00
7C00
7C00
7C00
7C00
7C00
7C00
7C00
7C00
7C00
7E00
7FF0
7FF0
1FF0
ENDCHAR
STARTCHAR 005C
ENCODING 92
SWIDTH 394 0
DWIDTH 15 0
BBX 11 33 2 -4
BITMAP
F000
F000
F000
F800
F800
7800
7800
7800
7C00
3C00
3C00
3C00
3C00
1E00
1E00
1E00
1E00
1F00
0F00
0F00
0F00
0F80
0780
0780
0780
07C0
07C0
03C0
03C0
03E0
03E0
03E0
01C0
ENDCHAR
STARTCHAR 005D
ENCODING 93
SWIDTH 421 0
DWIDTH 16 0
BBX 10 36 2 -8
BITMAP
7F00
FFC0
FFC0
7FC0
03C0
03C0
03C0
03C0
03C0
03C0
03C0
03C0
03C0
03C0
03C0
03C0
03C0
03C0
03C0
03C0
03C0
03C0
03C0
03C0
03C0
03C0
03C0
03C0
03C0
03C0
03C0
03C0
07C0
FFC0
FFC0
FF00
ENDCHAR
STARTCHAR 005E
ENCODING 94
SWIDTH 1000 0
DWIDTH 38 0
BBX 19 12 9 16
BITMAP
008000
03E000
03F000
07F800
0FFC00
1F3E00
1F1F00
3E0F80
7C07C0
FC03E0
F801E0
200000
ENDCHAR
STARTCHAR 005F
ENCODING 95
SWIDTH 500 0
DWIDTH 19 0
BBX 19 4 0 -2
BITMAP
FFFFE0
FFFFE0
FFFFE0
FFFFE0
ENDCHAR
STARTCHAR 0060
ENCODING 96
SWIDTH 500 0
DWIDTH 19 0
BBX 11 7 4 19
BITMAP
7000
FC00
7E00
3F80
0FC0
07E0
01C0
ENDCHAR
STARTCHAR 0061
ENCODING 97
SWIDTH 526 0
DWIDTH 20 0
BBX 21 17 -1 0
BITMAP
01F380
03FFC0
0FFFC0
0FFFC0
1F07C0
1E0780
3E0780
3C0780
3C0F80
3C0F80
3C0F80
3C0F80
3E1F80
3E3FC0
FFF9F8
FFF1F8
F3E078
ENDCHAR
STARTCHAR 0062
ENCODING 98
SWIDTH 447 0
DWIDTH 17 0
BBX 17 28 0 0
BITMAP
070000
0F0000
0F8000
1F8000
1F8000
1F8000
1F8000
1F8000
1F8000
1F8000
3F8000
7F0000
7F0000
1F7800
1E7C00
1E7E00
1E3F00
1E1F00
1E0780
1E0780
1F0780
1F0780
1F0780
1F0780
1F8F00
FFFF00
FFFE00
F0FC00
ENDCHAR
STARTCHAR 0063
ENCODING 99
SWIDTH 368 0
DWIDTH 14 0
BBX 15 17 0 0
BITMAP
07E0
1FF0
3FF8
7C38
783C
F838
F800
F800
7800
7C00
7C00
3E00
3F80
FFF8
FFFE
F1FE
E07E
ENDCHAR
STARTCHAR 0064
ENCODING 100
SWIDTH 526 0
DWIDTH 20 0
BBX 20 28 0 0
BITMAP
000600
000F00
000F00
000F00
000F00
000F00
000F00
000F00
000F00
000F00
000F00
01EF00
07FF00
0FFF00
1F0F00
1E0F00
3C0F00
3C0F00
380F00
780F00
780F00
7C0F00
7C1F00
7C1F00
7F3F80
FFF3F0
FFE1F0
E7C0F0
ENDCHAR
STARTCHAR 0065
ENCODING 101
SWIDTH 342 0
DWIDTH 13 0
BBX 14 17 0 0
BITMAP
0F80
3FC0
7FE0
78F0
F0F0
F078
F078
F078
F0F0
F8F0
79F0
7DE0
3FC0
1FC0
7DE0
F8FC
E038
ENDCHAR
STARTCHAR 0066
ENCODING 102
SWIDTH 421 0
DWIDTH 16 0
BBX 17 38 0 -10
BITMAP
03E000
07F000
0FF800
0F3800
1F3C00
1E3C00
1E1C00
3E1C00
3E1C00
3E1C00
3C1C00
3C1C00
3C1C00
3C3C00
3C3C00
3E3800
3E7800
3E7800
3EF000
3FE000
3FE000
3FC000
3F8000
3FE000
3FF000
3DF800
FCFF80
FC7B80
3C7C00
3C7C00
3E3C00
1E3C00
1E3C00
0F3C00
0FFC00
07F800
03F800
004000
ENDCHAR
STARTCHAR 0067
ENCODING 103
SWIDTH 526 0
DWIDTH 20 0
BBX 22 28 -2 -10
BITMAP
0001E0
00F9E0
07FFE0
0FFFE0
1FFFE0
1FC1E0
3F81E0
3F81E0
3F03E0
3F03E0
3F03E0
3F03E0
3F07E0
1F0FE0
1F1FE0
FFFDFC
FFF9FC
FFE7FC
001FE0
003FE0
003FE0
007EE0
007CE0
0079C0
0079C0
007FC0
007F80
003E00
ENDCHAR
STARTCHAR 0068
ENCODING 104
SWIDTH 526 0
DWIDTH 20 0
BBX 22 27 0 -2
BITMAP
060000
0F8000
0F8000
0F8000
0F0000
0F0000
0F0000
0F0000
0F0000
0F0000
0F0F00
0F3FC0
0F3FC0
0E73C0
0E61C0
0EE1C0
0EC3C0
0FC3C0
0F8380
1F8380
1F8380
1F0380
3F0380
7F03E0
FF01FC
CE00FC
0E0000
ENDCHAR
STARTCHAR 0069
ENCODING 105
SWIDTH 263 0
DWIDTH 10 0
BBX 11 28 0 0
BITMAP
1C00
3E00
3E00
3E00
3E00
0C00
0000
0000
0000
0000
0E00
1F00
3E00
1E00
1E00
1E00
1E00
1E00
1E00
1E00
1E00
1E00
1E00
3F00
7F80
F7C0
E3C0
C1E0
ENDCHAR
STARTCHAR 006A
ENCODING 106
SWIDTH 289 0
DWIDTH 11 0
BBX 12 38 -1 -10
BITMAP
0E00
1F00
1F80
1F80
1F80
0600
0000
0000
0000
0000
0200
0F00
1F80
1F80
1F80
0F80
0F80
0F80
0F80
0F80
0F80
0F80
0F80
1F80
3F80
FFB0
F7F0
77F0
07E0
0F80
1F80
1F80
3F80
3F80
3F80
1F00
1F00
0E00
ENDCHAR
STARTCHAR 006B
ENCODING 107
SWIDTH 447 0
DWIDTH 17 0
BBX 17 29 0 -1
BITMAP
1C0000
3C0000
3C0000
3C0000
3C0000
3C0000
3C0000
3C0000
3C0000
3C0000
3C3800
3C3800
3C3800
3C3800
3C3800
3C3800
3C3800
3DF000
3FF000
3FF000
3FF800
3C7C00
3C3C00
3C3C00
7C1E00
FC1F80
FC0F80
1C0000
080000
ENDCHAR
STARTCHAR 006C
ENCODING 108
SWIDTH 263 0
DWIDTH 10 0
BBX 10 28 0 0
BITMAP
1800
3C00
3E00
3E00
7E00
7700
7700
7300
7300
7300
7300
7300
7300
7300
7300
7300
3B00
3F00
3F00
3F00
3F00
1F00
1F00
1F00
7F80
FFC0
F7C0
C1C0
ENDCHAR
STARTCHAR 006D
ENCODING 109
SWIDTH 736 0
DWIDTH 28 0
BBX 29 17 -1 0
BITMAP
1E1E0F00
3E3F1F80
3E7F9F80
3EFFBFC0
1FEFBBC0
1FC7E3C0
1F87E3C0
1F87C3C0
1F07C3C0
1F07C3C0
1F0783C0
1E0783C0
1E0783C0
1E0783C0
3E0781E0
FE0781F8
FE038078
ENDCHAR
STARTCHAR 006E
ENCODING 110
SWIDTH 500 0
DWIDTH 19 0
BBX 18 17 0 0
BITMAP
3C3800
7C7C00
7CFC00
3CFC00
3DBC00
3D1C00
3F1C00
3E1E00
3E1E00
3E1E00
3C1E00
3C1E00
3C1E00
3C1E00
7C1F00
FC0FC0
FC03C0
ENDCHAR
STARTCHAR 006F
ENCODING 111
SWIDTH 421 0
DWIDTH 16 0
BBX 14 17 1 0
BITMAP
0600
1E00
3FE0
7DE4
79FC
F9FC
F070
F038
F038
F038
F038
7838
7838
7C70
FFF0
FFE0
E3C0
ENDCHAR
STARTCHAR 0070
ENCODING 112
SWIDTH 500 0
DWIDTH 19 0
BBX 20 30 0 -10
BITMAP
180000
3E0000
7E0000
3E3C00
3EFE00
3EFF00
3FEF80
3F8780
1F8780
1F03C0
1F03C0
1E03C0
1E03C0
1E03C0
1E0780
1E4F80
1FFF00
3FFF80
FFFFF0
FFFFE0
1E0000
1E0000
1E0000
1E0000
1E0000
1E0000
1E0000
1E0000
1E0000
0C0000
ENDCHAR
STARTCHAR 0071
ENCODING 113
SWIDTH 552 0
DWIDTH 21 0
BBX 21 27 0 -11
BITMAP
01C600
0FFE00
1FFE00
3FFE00
3F1E00
7E0E00
7C0E00
7C0F00
780F00
780F00
780F00
780F00
7C1F00
7C3F00
FFFFF8
FFF7F8
FFC7F8
0007F0
0007F0
0006F0
0006F0
000670
000670
000770
000370
0003E0
0001E0
ENDCHAR
STARTCHAR 0072
ENCODING 114
SWIDTH 447 0
DWIDTH 17 0
BBX 17 20 0 1
BITMAP
380000
7C0000
7C0000
3C0000
3F8000
1FE000
0FF000
0DF800
0C7800
0C3C00
0C3C00
0C3C00
0C3C00
0C3800
0C3800
1C3800
181C00
701E00
F00F80
C00380
ENDCHAR
STARTCHAR 0073
ENCODING 115
SWIDTH 447 0
DWIDTH 17 0
BBX 17 19 0 0
BITMAP
078000
0FC000
0FC000
0FC000
0FC000
07C000
07E000
07F000
07F800
077C00
0F3C00
0F1C00
0E1E00
1E1E00
1C1E00
3F1E00
7F3F00
FFFF80
E3FF80
ENDCHAR
STARTCHAR 0074
ENCODING 116
SWIDTH 342 0
DWIDTH 13 0
BBX 13 26 0 1
BITMAP
0E00
1E00
1E00
1E00
1E00
1E00
1E00
1E00
1E00
1E00
FFF0
FFF0
FFE0
1E00
1E00
1E00
1E00
1E00
1E00
1E00
1F00
1F00
1F80
3FE0
FFF8
F0F8
ENDCHAR
STARTCHAR 0075
ENCODING 117
SWIDTH 500 0
DWIDTH 19 0
BBX 19 17 0 0
BITMAP
3C0E00
3C0F00
3C0F00
3C0F00
3C0F00
3C0F00
3C0F00
3C0F00
3C0F00
3C0F00
3C0F00
3C0F00
3C1F00
3E7780
7FF3C0
FFE3E0
E3C0E0
ENDCHAR
STARTCHAR 0076
ENCODING 118
SWIDTH 421 0
DWIDTH 16 0
BBX 15 17 0 0
BITMAP
7872
7CFE
7CFE
7CFC
787C
783C
781C
781C
781C
7818
7818
7C38
7E78
FFF0
FFE0
EFE0
C380
ENDCHAR
STARTCHAR 0077
ENCODING 119
SWIDTH 657 0
DWIDTH 25 0
BBX 24 17 0 0
BITMAP
300073
7800FB
783CFF
783CFF
783C7E
783C3C
783C1C
783C1C
783C1C
783C1C
783C1C
7C3E1C
7C7E18
7E7F38
FFFFF0
FFE7F0
FF81E0
ENDCHAR
STARTCHAR 0078
ENCODING 120
SWIDTH 394 0
DWIDTH 15 0
BBX 16 19 0 0
BITMAP
701C
F83C
F87C
7C78
1E70
0EF0
0FE0
07E0
07E0
03C0
03C0
07C0
0FC0
0FE0
3EF8
FC7F
F83F
F01F
8002
ENDCHAR
STARTCHAR 0079
ENCODING 121
SWIDTH 500 0
DWIDTH 19 0
BBX 20 27 0 -11
BITMAP
1C0780
1E0780
1E0780
1E0780
1E0780
1E0780
1E0780
1E0780
1E0780
1E0780
1E0780
1F0F80
1F0F80
1FDF80
3FF780
FFF7F0
7FE7E0
000780
000F80
001FC0
003FC0
003BC0
003BC0
003B80
003F80
001F80
001F00
ENDCHAR
STARTCHAR 007A
ENCODING 122
SWIDTH 421 0
DWIDTH 16 0
BBX 16 27 0 -10
BITMAP
1FE0
7FF0
FFF8
E078
E03C
783C
783C
0078
00F8
03F0
7FC0
7FE0
3FF8
007F
03FF
07FF
0FFF
0F8E
1F0E
1E0F
1E0F
1E1E
1F3E
0FFE
0FFC
07F8
03E0
ENDCHAR
STARTCHAR 007B
ENCODING 123
SWIDTH 500 0
DWIDTH 19 0
BBX 14 35 3 -7
BITMAP
0070
01F8
03F8
07F0
07C0
0780
0780
0780
0780
0780
0780
0780
0780
0F80
0F80
7F00
FE00
FC00
FE00
1F00
0F00
0F80
0780
0780
0780
0780
0780
0780
0780
07C0
03F0
03FC
01FC
00FC
0010
ENDCHAR
STARTCHAR 007C
ENCODING 124
SWIDTH 500 0
DWIDTH 19 0
BBX 5 37 6 -10
BITMAP
70
F8
F8
F8
F8
F8
F8
F8
F8
F8
F8
F8
F8
F8
F8
F8
F8
F8
F8
F8
F8
F8
F8
F8
F8
F8
F8
F8
F8
F8
F8
F8
F8
F8
F8
F0
70
ENDCHAR
STARTCHAR 007D
ENCODING 125
SWIDTH 500 0
DWIDTH 19 0
BBX 14 33 3 -7
BITMAP
3C00
7E00
7F80
3F80
0F80
0780
0780
0780
0780
0780
0780
0780
0780
07C0
03E0
01FC
00FC
01FC
03E0
03C0
03C0
07C0
0780
0780
0780
0780
0780
0780
0F80
3F80
FF00
FE00
F800
ENDCHAR
STARTCHAR 007E
ENCODING 126
SWIDTH 947 0
DWIDTH 36 0
BBX 25 7 4 8
BITMAP
1F800300
7FFC0F80
FFFFFF80
FFFFFF80
FFFFFF00
007FFE00
0003F800
ENDCHAR
STARTCHAR 00A0
ENCODING 160
SWIDTH 526 0
DWIDTH 20 0
BBX 0 0 0 0
BITMAP
ENDCHAR
STARTCHAR 00A1
ENCODING 161
SWIDTH 289 0
DWIDTH 11 0
BBX 6 28 2 1
BITMAP
30
F8
F8
F8
78
30
00
60
70
78
78
78
78
78
78
78
78
7C
7C
7C
7C
7C
7C
7C
7C
7C
7C
3C
ENDCHAR
STARTCHAR 00A2
ENCODING 162
SWIDTH 526 0
DWIDTH 20 0
BBX 15 24 3 1
BITMAP
0180
01C0
03C0
07E0
1FFC
3FFE
7FFE
79DE
F1C0
E1C0
E1C0
E1C0
E1C0
F1C0
7DC0
7FC0
3FFC
1FFC
0FFC
03F8
01C0
01C0
01C0
01C0
ENDCHAR
STARTCHAR 00A3
ENCODING 163
SWIDTH 578 0
DWIDTH 22 0
BBX 20 28 1 -1
BITMAP
07F800
0FFE00
0FFF00
0F3F00
0E0F80
0E0700
0F0200
0F0000
0F0000
0F0000
078000
079800
7FFC00
7FFC00
03E000
01E000
01E000
01E000
01E000
01E000
3FE000
7FE000
FFE000
FFF870
FFFFF0
7FFFF0
3F7FF0
080FC0
ENDCHAR
STARTCHAR 00A4
ENCODING 164
SWIDTH 605 0
DWIDTH 23 0
BBX 0 0 0 0
BITMAP
ENDCHAR
STARTCHAR 00A5
ENCODING 165
SWIDTH 526 0
DWIDTH 20 0
BBX 19 30 1 0
BITMAP
000180
0003C0
0003C0
7007C0
F807C0
F80FC0
7C0F80
7C0F00
3E1F00
1F1E00
0F3E00
0FBE00
07BC00
7FFFC0
7FFFC0
7FFF80
01F000
3FFFE0
7FFFC0
7FF000
00F000
00F000
00F000
00F000
00F000
00F000
00F000
00F000
00F000
00E000
ENDCHAR
STARTCHAR 00A6
ENCODING 166
SWIDTH 500 0
DWIDTH 19 0
BBX 4 35 7 -7
BITMAP
F0
F0
F0
F0
F0
F0
F0
F0
F0
F0
F0
F0
F0
F0
F0
00
00
00
00
F0
F0
F0
F0
F0
F0
F0
F0
F0
F0
F0
F0
F0
F0
F0
60
ENDCHAR
STARTCHAR 00A7
ENCODING 167
SWIDTH 526 0
DWIDTH 20 0
BBX 15 31 3 -4
BITMAP
07E0
0FF8
1FFC
3C3C
3C18
3C00
1E00
1F00
0F80
07E0
3FF0
7FF8
7C7C
F01C
F00E
F00E
F80E
FC1C
7F3C
7FFC
1FF8
07F8
01F8
007C
703C
783C
FC3C
7FF8
3FF8
1FF0
07C0
ENDCHAR
STARTCHAR 00A8
ENCODING 168
SWIDTH 500 0
DWIDTH 19 0
BBX 12 6 5 19
BITMAP
0040
78F0
F9F0
FDF0
79F0
3060
ENDCHAR
STARTCHAR 00A9
ENCODING 169
SWIDTH 842 0
DWIDTH 32 0
BBX 21 20 5 3
BITMAP
00E000
07FF00
1F0780
3801E0
70F870
61FE30
C38E38
C70218
C70018
C70018
C70018
C70218
C38718
C3CE38
E1FE30
60F870
7000E0
3801C0
0F0780
03FE00
ENDCHAR
STARTCHAR 00AA
ENCODING 170
SWIDTH 421 0
DWIDTH 16 0
BBX 0 0 0 0
BITMAP
ENDCHAR
STARTCHAR 00AB
ENCODING 171
SWIDTH 473 0
DWIDTH 18 0
BBX 15 13 1 2
BITMAP
0E0E
0F1E
1E3E
3C7C
78F8
F9F0
F1E0
F1F0
78F8
3C78
3E3C
1E1E
0E0E
ENDCHAR
STARTCHAR 00AC
ENCODING 172
SWIDTH 842 0
DWIDTH 32 0
BBX 24 11 4 5
BITMAP
7FFFFF
FFFFFF
FFFFFF
FFFFFF
3FFFFF
00000F
00000F
00000F
00000F
00000F
00000F
ENDCHAR
STARTCHAR 00AE
ENCODING 174
SWIDTH 842 0
DWIDTH 32 0
BBX 22 19 4 4
BITMAP
01FE00
070780
0C00E0
180030
31FC18
31FF18
618708
61870C
61FF0C
C1FE0C
C1DC0C
E1CE0C
61CF08
61C718
318318
388030
1C0060
0701C0
01FF00
ENDCHAR
STARTCHAR 00AF
ENCODING 175
SWIDTH 500 0
DWIDTH 19 0
BBX 10 3 6 21
BITMAP
FFC0
FFC0
FFC0
ENDCHAR
STARTCHAR 00B0
ENCODING 176
SWIDTH 342 0
DWIDTH 13 0
BBX 0 0 0 0
BITMAP
ENDCHAR
STARTCHAR 00B1
ENCODING 177
SWIDTH 842 0
DWIDTH 32 0
BBX 24 28 4 3
BITMAP
007800
007800
007800
007800
007800
007800
007800
007800
007800
7FFFFE
FFFFFE
FFFFFE
FFFFFE
007800
007800
007800
007800
007800
007800
007800
007800
003800
001000
000000
FFFFFF
FFFFFF
FFFFFF
7FFFFF
ENDCHAR
STARTCHAR 00B2
ENCODING 178
SWIDTH 342 0
DWIDTH 13 0
BBX 0 0 0 0
BITMAP
ENDCHAR
STARTCHAR 00B3
ENCODING 179
SWIDTH 342 0
DWIDTH 13 0
BBX 0 0 0 0
BITMAP
ENDCHAR
STARTCHAR 00B4
ENCODING 180
SWIDTH 500 0
DWIDTH 19 0
BBX 10 7 7 19
BITMAP
03C0
07C0
1FC0
3F00
7E00
F800
F000
ENDCHAR
STARTCHAR 00B5
ENCODING 181
SWIDTH 578 0
DWIDTH 22 0
BBX 23 29 1 -7
BITMAP
700380
7807C0
F807C0
F807C0
F807C0
F807C0
F807C0
F807C0
F807C0
F807C0
F807C0
F807C0
F807C0
F807C0
F807C0
F807C0
FC07E0
FE1FE0
FFFFFE
FFFEFE
FFFC7E
F9F01E
F80000
F80000
F80000
F80000
F80000
F80000
700000
ENDCHAR
STARTCHAR 00B6
ENCODING 182
SWIDTH 631 0
DWIDTH 24 0
BBX 19 33 0 -5
BITMAP
1FFFE0
3FFFE0
7FFFE0
7FFFE0
FFE700
FFE700
FFE700
FFE700
FFE700
FFE700
7FE700
7FE700
3FE700
07E700
01E700
01E700
01E700
01E700
01E700
01E780
01E780
01E780
01E780
01E780
01E780
01E780
01E780
01E780
01E780
01E780
01E780
01E780
01E780
ENDCHAR
STARTCHAR 00B7
ENCODING 183
SWIDTH 263 0
DWIDTH 10 0
BBX 0 0 0 0
BITMAP
ENDCHAR
STARTCHAR 00B8
ENCODING 184
SWIDTH 500 0
DWIDTH 19 0
BBX 10 9 4 -9
BITMAP
1800
3800
3E00
3F80
0780
03C0
FFC0
FF80
7E00
ENDCHAR
STARTCHAR 00B9
ENCODING 185
SWIDTH 289 0
DWIDTH 11 0
BBX 0 0 0 0
BITMAP
ENDCHAR
STARTCHAR 00BA
ENCODING 186
SWIDTH 342 0
DWIDTH 13 0
BBX 0 0 0 0
BITMAP
ENDCHAR
STARTCHAR 00BB
ENCODING 187
SWIDTH 473 0
DWIDTH 18 0
BBX 16 13 1 2
BITMAP
E0E0
F0F0
78F8
7C7C
3E3E
1F1E
0F1F
0F1E
1E3E
3C3C
7878
F8F0
F0E0
ENDCHAR
STARTCHAR 00BC
ENCODING 188
SWIDTH 842 0
DWIDTH 32 0
BBX 0 0 0 0
BITMAP
ENDCHAR
STARTCHAR 00BD
ENCODING 189
SWIDTH 921 0
DWIDTH 35 0
BBX 0 0 0 0
BITMAP
ENDCHAR
STARTCHAR 00BE
ENCODING 190
SWIDTH 973 0
DWIDTH 37 0
BBX 0 0 0 0
BITMAP
ENDCHAR
STARTCHAR 00BF
ENCODING 191
SWIDTH 447 0
DWIDTH 17 0
BBX 14 28 2 0
BITMAP
1800
3F00
3F00
3F00
3F00
0C00
0600
0F00
0F00
0F00
0F00
1F00
1F00
1E00
3E00
3C00
7C00
7800
F800
F038
F07C
F07C
F07C
FCF8
7FF8
7FF0
3FF0
07C0
ENDCHAR
STARTCHAR 00C0
ENCODING 192
SWIDTH 657 0
DWIDTH 25 0
BBX 25 38 2 1
BITMAP
00780000
007C0000
007F0000
001F8000
000FC000
0003E000
0001E000
00004000
00000000
00000000
00030000
001F8000
007F8000
01FF8000
03FE0000
07F87000
0FE07800
1FC0F800
3F80F800
3F00F800
7E00F000
7C00F000
7C00F000
FC00F000
F801F000
F801F000
F801F000
F801F000
F803F000
F803F000
F803F000
F8077000
F80F7000
7C1E7800
3FFE7800
3FFC3F00
0FF83F80
07E00F80
ENDCHAR
STARTCHAR 00C1
ENCODING 193
SWIDTH 657 0
DWIDTH 25 0
BBX 25 38 2 1
BITMAP
00007000
0000F000
0003F000
0007E000
001FC000
003F0000
003E0000
00180000
00000000
00000000
00030000
001F8000
007F8000
01FF8000
03FE0000
07F87000
0FE07800
1FC0F800
3F80F800
3F00F800
7E00F000
7C00F000
7C00F000
FC00F000
F801F000
F801F000
F801F000
F801F000
F803F000
F803F000
F803F000
F8077000
F80F7000
7C1E7800
3FFE7800
3FFC3F00
0FF83F80
07E00F80
ENDCHAR
STARTCHAR 00C2
ENCODING 194
SWIDTH 657 0
DWIDTH 25 0
BBX 25 36 2 0
BITMAP
000C0000
001F0000
003F8000
007FC000
00F9E000
01F0F000
01C07000
00000000
00030000
001F8000
007F8000
01FF8000
03FE0000
07F87000
0FE07800
1FC0F800
3F80F800
3F00F800
7E00F000
7C00F000
7C00F000
FC00F000
F801F000
F801F000
F801F000
F801F000
F803F000
F803F000
F803F000
F8077000
F80F7000
7C1E7800
3FFE7800
3FFC3F00
0FF83F80
07E00F80
ENDCHAR
STARTCHAR 00C3
ENCODING 195
SWIDTH 657 0
DWIDTH 25 0
BBX 25 35 2 1
BITMAP
00006000
007FE000
007FE000
00FFC000
00C00000
00000000
00000000
00030000
001F8000
007F8000
01FF8000
03FE0000
07F87000
0FE07800
1FC0F800
3F80F800
3F00F800
7E00F000
7C00F000
7C00F000
FC00F000
F801F000
F801F000
F801F000
F801F000
F803F000
F803F000
F803F000
F8077000
F80F7000
7C1E7800
3FFE7800
3FFC3F00
0FF83F80
07E00F80
ENDCHAR
STARTCHAR 00C4
ENCODING 196
SWIDTH 657 0
DWIDTH 25 0
BBX 25 36 2 1
BITMAP
0030E000
0079F000
00FDF000
007DF000
0078F000
00000000
00000000
00000000
00030000
001F8000
007F8000
01FF8000
03FE0000
07F87000
0FE07800
1FC0F800
3F80F800
3F00F800
7E00F000
7C00F000
7C00F000
FC00F000
F801F000
F801F000
F801F000
F801F000
F803F000
F803F000
F803F000
F8077000
F80F7000
7C1E7800
3FFE7800
3FFC3F00
0FF83F80
07E00F80
ENDCHAR
STARTCHAR 00C5
ENCODING 197
SWIDTH 657 0
DWIDTH 25 0
BBX 25 40 1 0
BITMAP
001E0000
007F8000
00E18000
00C0C000
00C0C000
00E0C000
0071C000
003F8000
001F0000
00000000
00000000
00000000
00010000
001F8000
007FC000
00FF8000
03FE0000
07F83800
0FE07800
1FC07800
1F80F800
3F00F800
3E00F800
7E00F800
7C00F800
FC00F000
F800F000
F801F000
F801F000
F801F000
F803F000
F803F000
F803F000
F8077800
780F7800
7C1E7800
3FFE7C00
1FFC3F80
0FF81F80
03E00F80
ENDCHAR
STARTCHAR 00C6
ENCODING 198
SWIDTH 1026 0
DWIDTH 39 0
BBX 0 0 0 0
BITMAP
ENDCHAR
STARTCHAR 00C7
ENCODING 199
SWIDTH 578 0
DWIDTH 22 0
BBX 21 46 -1 -17
BITMAP
001F00
007FC0
01FFE0
03FFF0
07F1F0
07E0F0
0FC0F0
1F80F0
1F01F0
3F03E0
3E07E0
3E0FC0
7E1F80
7C1F00
7C0600
7C0000
7C0000
F80000
F80000
F80000
F80000
F80000
F80000
F80000
F80000
F80070
F80078
FC00F8
7C00F8
7C00F8
7E01F0
7F01F0
3F87E0
3FFFE0
1FFFC0
0FFF80
07FF80
03FF00
00FC00
007000
007E00
003F00
000700
03FF00
03FF00
00FC00
ENDCHAR
STARTCHAR 00C8
ENCODING 200
SWIDTH 552 0
DWIDTH 21 0
BBX 19 47 1 -8
BITMAP
0E0000
1F0000
1FC000
0FE000
03F000
00F800
007C00
003800
000000
00F800
03FE00
07FF00
0FFF80
1FE7C0
1F83C0
3F01E0
3F01C0
3E0000
3E0000
3E0000
3E0000
3E0000
3E0000
3FFC00
1FFE00
0FFE00
0FFC00
1FF800
1F0000
3E0000
3E0000
7E0000
7C0000
FC00C0
FC01E0
FC03E0
FC03E0
FC03E0
FC03E0
FC07C0
FE0FC0
7FBF80
7FFF80
3FFF00
1FFE00
0FF800
008000
ENDCHAR
STARTCHAR 00C9
ENCODING 201
SWIDTH 552 0
DWIDTH 21 0
BBX 19 47 1 -8
BITMAP
0000C0
0003E0
0007E0
001FC0
003F00
007E00
00F800
007000
000000
00F800
03FE00
07FF00
0FFF80
1FE7C0
1F83C0
3F01E0
3F01C0
3E0000
3E0000
3E0000
3E0000
3E0000
3E0000
1FFC00
1FFE00
0FFE00
0FFC00
1FF800
1F0000
3E0000
3E0000
7E0000
7C0000
FC00C0
FC01E0
FC03E0
FC03E0
FC03E0
FC03E0
FC07C0
FE0FC0
7FBF80
7FFF80
3FFF00
1FFE00
0FF800
008000
ENDCHAR
STARTCHAR 00CA
ENCODING 202
SWIDTH 552 0
DWIDTH 21 0
BBX 19 46 1 -8
BITMAP
00F000
01F800
03FC00
07DE00
0F0F00
1E0780
080100
000000
00F800
07FE00
0FFF00
1FFF80
1FE7C0
3F83C0
3F01E0
7F01C0
7E0000
7E0000
7E0000
7E0000
7E0000
7E0000
3FFC00
1FFE00
1FFE00
0FFC00
1FF800
1F0000
3E0000
3E0000
7E0000
7C0000
FC00C0
FC01E0
FC03E0
FC03E0
FC03E0
FC03E0
FC07C0
FE0FC0
7FBF80
7FFF80
3FFF00
1FFE00
0FF800
008000
ENDCHAR
STARTCHAR 00CB
ENCODING 203
SWIDTH 552 0
DWIDTH 21 0
BBX 19 45 1 -8
BITMAP
038F00
07CF80
07EF80
07EF80
03CF00
000000
000000
00F800
03FE00
07FF00
0FFF80
1FE7C0
1F83C0
3F01E0
3F01C0
3E0000
3E0000
3E0000
3E0000
3E0000
3E0000
1FFC00
1FFE00
0FFE00
0FFC00
1FF800
1F0000
3E0000
3E0000
7E0000
7C0000
FC00C0
FC01E0
FC03E0
FC03E0
FC03E0
FC03E0
FC07C0
FE0FC0
7FBF80
7FFF80
3FFF00
1FFE00
0FF800
008000
ENDCHAR
STARTCHAR 00CC
ENCODING 204
SWIDTH 526 0
DWIDTH 20 0
BBX 15 44 3 -4
BITMAP
7000
FC00
FE00
3F80
0FC0
07E0
01E0
0080
0000
0000
0000
0780
1FC0
1FE0
3DE0
78F0
78F0
7878
7078
7078
F078
F83C
783C
783C
783C
783C
7C3C
3E3C
3E3E
1FBE
1FFE
0FFE
07FE
01FC
007C
003C
E03C
F03C
F878
7CF8
7FF0
3FE0
1FC0
0600
ENDCHAR
STARTCHAR 00CD
ENCODING 205
SWIDTH 526 0
DWIDTH 20 0
BBX 15 44 3 -4
BITMAP
0010
0038
00FC
01F8
07F0
0FC0
0F00
0E00
0000
0000
0000
0780
1FC0
1FE0
3DE0
78F0
78F0
7878
7078
7078
F078
F83C
783C
783C
783C
783C
7C3C
3E3C
3E3E
1FBE
1FFE
0FFE
07FE
01FC
007C
003C
E03C
F03C
F878
7CF8
7FF0
3FE0
1FC0
0600
ENDCHAR
STARTCHAR 00CE
ENCODING 206
SWIDTH 526 0
DWIDTH 20 0
BBX 15 42 3 -5
BITMAP
0200
0F80
0FC0
1FE0
3CF0
7878
F03C
4000
0000
0780
1FC0
1FE0
3DE0
78F0
78F0
7878
7078
7078
F078
F83C
783C
783C
783C
783C
7C3C
3E3C
3E3E
1FBE
1FFE
0FFE
07FE
01FC
007C
003C
E03C
F03C
F878
7CF8
7FF0
3FE0
1FC0
0600
ENDCHAR
STARTCHAR 00CF
ENCODING 207
SWIDTH 526 0
DWIDTH 20 0
BBX 15 42 3 -4
BITMAP
1C78
3E78
3E7C
3E7C
1E78
0000
0000
0000
0000
0780
1FC0
1FE0
3DE0
78F0
78F0
7878
7078
7078
F078
F83C
783C
783C
783C
783C
7C3C
3E3C
3E3E
1FBE
1FFE
0FFE
07FE
01FC
007C
003C
E03C
F03C
F878
7CF8
7FF0
3FE0
1FC0
0600
ENDCHAR
STARTCHAR 00D0
ENCODING 208
SWIDTH 815 0
DWIDTH 31 0
BBX 0 0 0 0
BITMAP
ENDCHAR
STARTCHAR 00D1
ENCODING 209
SWIDTH 842 0
DWIDTH 32 0
BBX 32 37 1 -1
BITMAP
00000200
0001C700
0007FE00
0007FE00
000E1800
00040000
00000000
00000000
1F801F00
7FC03F80
7FE07FC0
FFF07FC0
F8F8FFE0
F078E3E0
F038C1E0
F03DC1F0
F03DC1F0
F81D80F0
FC1F80F0
7E1F81F0
7F1F81F0
3F1F81F0
1F1F01F0
071F01F0
001F01F0
001F01F0
001F01F0
001F01F0
001F01F0
001F01F0
001F01F0
001F01F8
001F00FC
001F00FF
001F007F
001E003F
00040007
ENDCHAR
STARTCHAR 00D2
ENCODING 210
SWIDTH 631 0
DWIDTH 24 0
BBX 27 40 0 1
BITMAP
03800000
03E00000
03F80000
01FC0000
007E0000
003F0000
000F0000
00060000
00000000
00000000
001E0000
007F8000
07FFC000
1FFFE1C0
3FC7F3E0
3FC3F7E0
7FC1FFC0
7FE1FF80
7CE1FF00
FCF9FE00
F87FFC00
F81FFC00
F80FFC00
F8003C00
F8003C00
F8003C00
F8003C00
F8003C00
F8003C00
FC003C00
7C003C00
7E007C00
7E007800
3F007800
3FC0F800
1FFFF000
0FFFF000
07FFE000
01FFC000
007F0000
ENDCHAR
STARTCHAR 00D3
ENCODING 211
SWIDTH 631 0
DWIDTH 24 0
BBX 27 40 0 1
BITMAP
00010000
00078000
001FC000
003F8000
007E0000
00F80000
01F00000
00E00000
00000000
00000000
001E0000
007F8000
07FFC000
1FFFE1C0
3FC7F3E0
3FC3F7E0
7FC1FFC0
7FE1FF80
7CE1FF00
FCF9FE00
F87FFC00
F81FFC00
F80FFC00
F8003C00
F8003C00
F8003C00
F8003C00
F8003C00
F8003C00
FC003C00
7C003C00
7E007C00
7E007800
3F007800
3FC0F800
1FFFF000
0FFFF000
07FFE000
01FFC000
007F0000
ENDCHAR
STARTCHAR 00D4
ENCODING 212
SWIDTH 631 0
DWIDTH 24 0
BBX 28 39 -1 1
BITMAP
003C0000
007E0000
00FF0000
01FF8000
03E3C000
03C1E000
0700C000
00000000
00000000
001F0000
003FC000
03FFE000
0FFFF0E0
1FE3F9F0
3FE1FBF0
3FE0FFE0
7FF0FFC0
7E70FF80
7E7CFF00
7C3FFE00
7C0FFE00
7C07FE00
7C001E00
FC001E00
FC001E00
FC001E00
7C001E00
7C001E00
7E001E00
7E001E00
7F003C00
3F003C00
3F803C00
1FE07C00
0FFFF800
07FFF800
03FFF000
01FFE000
003F8000
ENDCHAR
STARTCHAR 00D5
ENCODING 213
SWIDTH 631 0
DWIDTH 24 0
BBX 27 38 0 0
BITMAP
00003000
001E7800
003FF000
007FE000
0070C000
00200000
00000000
00000000
001E0000
007F8000
07FFC000
1FFFE1C0
3FC7F3E0
3FC3F7E0
7FC1FFC0
7FE1FF80
7CE1FF00
FCF9FE00
F87FFC00
F81FFC00
F80FFC00
F8003C00
F8003C00
F8003C00
F8003C00
F8003C00
F8003C00
FC003C00
7C003C00
7E007C00
7E007800
3F007800
3FC0F800
1FFFF000
0FFFF000
07FFE000
01FFC000
007F0000
ENDCHAR
STARTCHAR 00D6
ENCODING 214
SWIDTH 631 0
DWIDTH 24 0
BBX 27 37 0 0
BITMAP
00830000
03E7C000
03E7C000
03E7C000
01E78000
00010000
00000000
001E0000
007F8000
07FFC000
1FFFE1C0
3FC7F3E0
3FC3F7E0
7FC1FFC0
7FE1FF80
7CE1FF00
FCF9FE00
F87FFC00
F81FFC00
F80FFC00
F8003C00
F8003C00
F8003C00
F8003C00
F8003C00
F8003C00
FC003C00
7C003C00
7E007C00
7E007800
3F007800
3FC0F800
1FFFF000
0FFFF000
07FFE000
01FFC000
007F0000
ENDCHAR
STARTCHAR 00D7
ENCODING 215
SWIDTH 842 0
DWIDTH 32 0
BBX 19 17 6 3
BITMAP
0003C0
E007C0
F00FC0
FC1F80
7E3F00
3F3E00
0FFC00
07F800
01FC00
03FE00
07DF00
0F8FC0
1F07E0
3E03E0
3C01E0
3C0000
380000
ENDCHAR
STARTCHAR 00D8
ENCODING 216
SWIDTH 526 0
DWIDTH 20 0
BBX 0 0 0 0
BITMAP
ENDCHAR
STARTCHAR 00D9
ENCODING 217
SWIDTH 921 0
DWIDTH 35 0
BBX 35 41 2 0
BITMAP
0004000000
000F000000
001F800000
000FE00000
0007F00000
0001F80000
0000FC0000
0000380000
0000000000
0000000000
0000000000
0FC001E000
1FF003E000
3FF803E000
7FF803E000
7C7C03E000
F83C03F000
F03E03F000
F01E03F000
F01E03F000
781E03F000
781E03F000
7F1E03F000
3F1E03F000
1F1E03F000
0E3E03F000
003E07F000
003E07F000
003E07F000
003E07F000
003E07F000
003E0F7800
003E0F7800
003F1F7800
001F3E7C00
001FFE3E00
001FFC3F00
000FFC1FE0
000FF80FE0
0007F007E0
0001C00000
ENDCHAR
STARTCHAR 00DA
ENCODING 218
SWIDTH 921 0
DWIDTH 35 0
BBX 35 40 2 0
BITMAP
0000070000
00001F0000
00003F0000
0000FE0000
0001F80000
0003F00000
0003C00000
0001800000
0000000000
0000000000
0FC001E000
1FF003E000
3FF803E000
7FF803E000
7C7C03E000
F83C03F000
F03E03F000
F01E03F000
F01E03F000
781E03F000
781E03F000
7F1E03F000
3F1E03F000
1F1E03F000
0E3E03F000
003E07F000
003E07F000
003E07F000
003E07F000
003E07F000
003E0F7800
003E0F7800
003F1F7800
001F3E7C00
001FFE3E00
001FFC3F00
000FFC1FE0
000FF80FE0
0007F007E0
0001C00000
ENDCHAR
STARTCHAR 00DB
ENCODING 219
SWIDTH 921 0
DWIDTH 35 0
BBX 35 39 2 -1
BITMAP
0003C00000
0007E00000
000FF00000
000FF80000
001E7C0000
003C1E0000
00780E0000
0000000000
0000000000
0FC001E000
1FF003E000
3FF803E000
7FF803E000
7C7C03E000
F83C03F000
F03E03F000
F01E03F000
F01E03F000
781E03F000
781E03F000
7F1E03F000
3F1E03F000
1F1E03F000
0E3E03F000
003E07F000
003E07F000
003E07F000
003E07F000
003E07F000
003E0F7800
003E0F7800
003F1F7800
001F3E7C00
001FFE3E00
001FFC3F00
000FFC1FE0
000FF80FE0
0007F007E0
0001C00000
ENDCHAR
STARTCHAR 00DC
ENCODING 220
SWIDTH 921 0
DWIDTH 35 0
BBX 35 37 2 0
BITMAP
00061C0000
001F3C0000
001F3E0000
001FBE0000
000F3C0000
0000000000
0000000000
0FC001E000
1FF003E000
3FF803E000
7FF803E000
7C7C03E000
F83C03F000
F03E03F000
F01E03F000
F01E03F000
781E03F000
781E03F000
7F1E03F000
3F1E03F000
1F1E03F000
0E3E03F000
003E07F000
003E07F000
003E07F000
003E07F000
003E07F000
003E0F7800
003E0F7800
003F1F7800
001F3E7C00
001FFE3E00
001FFC3F00
000FFC1FE0
000FF80FE0
0007F007E0
0001C00000
ENDCHAR
STARTCHAR 00DD
ENCODING 221
SWIDTH 894 0
DWIDTH 34 0
BBX 0 0 0 0
BITMAP
ENDCHAR
STARTCHAR 00DE
ENCODING 222
SWIDTH 710 0
DWIDTH 27 0
BBX 0 0 0 0
BITMAP
ENDCHAR
STARTCHAR 00DF
ENCODING 223
SWIDTH 710 0
DWIDTH 27 0
BBX 29 28 -1 0
BITMAP
003F8000
007FE000
00FFF000
01FFF000
01E0F800
01C07800
03C07800
03C07800
03C0F800
01C0F000
01C1F000
01C3E000
01DFF000
01DFFC00
01DFFE00
01C0FF00
01C01F80
01C00F80
01C00780
01C00780
01C00780
03800780
03800F80
03800F00
07873F00
1F0FFF80
FE0FFFF8
7807FFF0
ENDCHAR
STARTCHAR 00E0
ENCODING 224
SWIDTH 526 0
DWIDTH 20 0
BBX 21 26 -1 1
BITMAP
078000
07C000
07F000
01F800
00FC00
003E00
001E00
000000
000000
01F380
03FFC0
0FFFC0
0FFFC0
1F07C0
1E0780
3E0780
3C0780
3C0F80
3C0F80
3C0F80
3C0F80
3E1F80
3E3FC0
FFF9F8
FFF1F8
F3E078
ENDCHAR
STARTCHAR 00E1
ENCODING 225
SWIDTH 526 0
DWIDTH 20 0
BBX 21 25 -1 1
BITMAP
000040
0001E0
0007E0
000FE0
001F80
007E00
007C00
007800
01F380
03FFC0
0FFFC0
0FFFC0
1F07C0
1E0780
3E0780
3C0780
3C0F80
3C0F80
3C0F80
3C0F80
3E1F80
3E3FC0
FFF9F8
FFF1F8
F3E078
ENDCHAR
STARTCHAR 00E2
ENCODING 226
SWIDTH 526 0
DWIDTH 20 0
BBX 21 25 -1 1
BITMAP
007C00
007E00
00FF00
01EF80
03C3C0
0781C0
070040
000000
01F380
03FFC0
0FFFC0
0FFFC0
1F07C0
1E0780
3E0780
3C0780
3C0F80
3C0F80
3C0F80
3C0F80
3E1F80
3E3FC0
FFF9F8
FFF1F8
F3E078
ENDCHAR
STARTCHAR 00E3
ENCODING 227
SWIDTH 526 0
DWIDTH 20 0
BBX 21 24 -1 1
BITMAP
0001C0
00FF80
01FF80
03DF00
038000
000000
000000
01F380
03FFC0
0FFFC0
0FFFC0
1F07C0
1E0780
3E0780
3C0780
3C0F80
3C0F80
3C0F80
3C0F80
3E1F80
3E3FC0
FFF9F8
FFF1F8
F3E078
ENDCHAR
STARTCHAR 00E4
ENCODING 228
SWIDTH 526 0
DWIDTH 20 0
BBX 21 25 -1 1
BITMAP
01C380
03E7C0
03E7C0
03E7C0
01E380
000000
000000
000000
01F380
03FFC0
0FFFC0
0FFFC0
1F07C0
1E0780
3E0780
3C0780
3C0F80
3C0F80
3C0F80
3C0F80
3E1F80
3E3FC0
FFF9F8
FFF1F8
F3E078
ENDCHAR
STARTCHAR 00E5
ENCODING 229
SWIDTH 526 0
DWIDTH 20 0
BBX 21 28 -1 0
BITMAP
003C00
00FF00
01C300
018180
018180
01C180
00E380
007F00
003E00
000000
000000
00FBC0
03FFE0
07FFE0
0FFFE0
1F07C0
1E07C0
3E07C0
3C07C0
3C0FC0
3C0FC0
3C0F80
3C0F80
3E1FC0
3E3BC0
FFFBF8
FFF1F8
F3C078
ENDCHAR
STARTCHAR 00E6
ENCODING 230
SWIDTH 684 0
DWIDTH 26 0
BBX 0 0 0 0
BITMAP
ENDCHAR
STARTCHAR 00E7
ENCODING 231
SWIDTH 394 0
DWIDTH 15 0
BBX 16 26 0 -9
BITMAP
07E0
1FF0
3FF8
7C38
783C
F838
F800
F800
7800
7C00
7C00
3E00
3F00
7FE0
FFFE
F1FE
E07E
0070
0078
007E
007F
000F
0007
03FF
03FF
00FC
ENDCHAR
STARTCHAR 00E8
ENCODING 232
SWIDTH 342 0
DWIDTH 13 0
BBX 14 28 0 1
BITMAP
6000
F800
FE00
7F00
1F80
0FC0
03E0
01C0
0000
0000
0000
0F80
3FC0
7FE0
78F0
F0F0
F078
F078
F078
F0F0
F8F0
79F0
7DE0
3FC0
1FC0
7DE0
F8FC
E038
ENDCHAR
STARTCHAR 00E9
ENCODING 233
SWIDTH 342 0
DWIDTH 13 0
BBX 15 28 0 1
BITMAP
000C
001E
007E
00FC
03F8
07E0
07C0
0700
0000
0000
0000
0F80
3FC0
7FE0
78F0
F0F0
F078
F078
F078
F0F0
F8F0
79F0
7DE0
3FC0
1FC0
7DE0
F8FC
E038
ENDCHAR
STARTCHAR 00EA
ENCODING 234
SWIDTH 342 0
DWIDTH 13 0
BBX 14 26 0 0
BITMAP
0200
0F80
0FC0
1FE0
3CF0
7878
F03C
4000
0000
0F80
3FC0
7FE0
78F0
F0F0
F078
F078
F078
F0F0
F8F0
79F0
7DE0
3FC0
1FC0
7DE0
F8FC
E038
ENDCHAR
STARTCHAR 00EB
ENCODING 235
SWIDTH 342 0
DWIDTH 13 0
BBX 14 25 0 1
BITMAP
70E0
F9F0
F9F0
FDF0
78F0
0000
0000
0000
0F80
3FC0
7FE0
78F0
F0F0
F078
F078
F078
F0F0
F8F0
79F0
7DE0
3FC0
1FC0
7DE0
F8FC
E038
ENDCHAR
STARTCHAR 00EC
ENCODING 236
SWIDTH 263 0
DWIDTH 10 0
BBX 12 26 -1 1
BITMAP
7000
FC00
FE00
3F00
1FC0
07E0
03E0
00C0
0700
0F00
1F80
0F00
0F00
0F00
0F00
0F00
0F00
0F00
0F00
0F00
0F00
1F80
3FC0
7BF0
71F0
6070
ENDCHAR
STARTCHAR 00ED
ENCODING 237
SWIDTH 263 0
DWIDTH 10 0
BBX 12 26 0 1
BITMAP
00E0
01F0
07F0
0FC0
3F80
3E00
7C00
3000
0E00
1E00
3F00
1E00
1E00
1E00
1E00
1E00
1E00
1E00
1E00
1E00
1E00
3F00
7F80
F7E0
E3E0
C0E0
ENDCHAR
STARTCHAR 00EE
ENCODING 238
SWIDTH 263 0
DWIDTH 10 0
BBX 14 27 -1 0
BITMAP
0200
0F80
0FE0
1FF0
3CF8
7878
F01C
0000
0000
0700
0F80
1F00
0F00
0F00
0F00
0F00
0F00
0F00
0F00
0F00
0F00
0F00
1F80
3FE0
7BF0
71F0
6070
ENDCHAR
STARTCHAR 00EF
ENCODING 239
SWIDTH 263 0
DWIDTH 10 0
BBX 12 25 0 0
BITMAP
00C0
F9F0
F9F0
F9F0
79F0
3040
0000
0E00
1E00
3F00
1E00
1E00
1E00
1E00
1E00
1E00
1E00
1E00
1E00
1E00
3F00
7F80
F7E0
E3E0
C0E0
ENDCHAR
STARTCHAR 00F0
ENCODING 240
SWIDTH 447 0
DWIDTH 17 0
BBX 0 0 0 0
BITMAP
ENDCHAR
STARTCHAR 00F1
ENCODING 241
SWIDTH 526 0
DWIDTH 20 0
BBX 18 24 0 1
BITMAP
000600
07FE00
07FE00
0FFC00
0C0000
000000
000000
3C3800
7C7C00
7CFC00
3CFC00
3DBC00
3D1C00
3F1C00
3E1E00
3E1E00
3E1E00
3C1E00
3C1E00
3C1E00
3C1E00
7C1F00
FC0FC0
FC03C0
ENDCHAR
STARTCHAR 00F2
ENCODING 242
SWIDTH 447 0
DWIDTH 17 0
BBX 14 27 1 1
BITMAP
1800
3E00
3F00
1FC0
07E0
03F0
00F8
0070
0000
0000
0600
1E00
3FE0
7DE4
79FC
F9FC
F070
F038
F038
F038
F038
7838
7838
7C70
FFF0
FFE0
E3C0
ENDCHAR
STARTCHAR 00F3
ENCODING 243
SWIDTH 447 0
DWIDTH 17 0
BBX 15 28 1 1
BITMAP
0004
001E
003E
00FE
01F8
03E0
07C0
0780
0000
0000
0000
0600
1E00
3FE0
7DE4
79FC
F9FC
F070
F038
F038
F038
F038
7838
7838
7C70
FFF0
FFE0
E3C0
ENDCHAR
STARTCHAR 00F4
ENCODING 244
SWIDTH 447 0
DWIDTH 17 0
BBX 15 26 1 0
BITMAP
0080
03E0
07F0
0FF8
1F7C
1E1E
380E
0000
0000
0600
1E00
3FE0
7DE4
79FC
F9FC
F070
F038
F038
F038
F038
7838
7838
7C70
FFF0
FFE0
E3C0
ENDCHAR
STARTCHAR 00F5
ENCODING 245
SWIDTH 447 0
DWIDTH 17 0
BBX 14 24 1 0
BITMAP
000C
07BC
0FF8
1FF0
1800
0000
0000
0600
1E00
3FE0
7DE4
79FC
F9FC
F070
F038
F038
F038
F038
7838
7838
7C70
FFF0
FFE0
E3C0
ENDCHAR
STARTCHAR 00F6
ENCODING 246
SWIDTH 447 0
DWIDTH 17 0
BBX 14 25 1 0
BITMAP
0C38
1E7C
1F7C
1F7C
1F3C
0000
0000
0000
0600
1E00
3FE0
7DE4
79FC
F9FC
F070
F038
F038
F038
F038
7838
7838
7C70
FFF0
FFE0
E3C0
ENDCHAR
STARTCHAR 00F7
ENCODING 247
SWIDTH 842 0
DWIDTH 32 0
BBX 23 20 4 1
BITMAP
007000
00FC00
00FC00
00FC00
00FC00
007800
000000
000000
FFFFFE
FFFFFE
FFFFFE
7FFFF8
000000
000000
007800
00FC00
00FC00
00FC00
00FC00
001000
ENDCHAR
STARTCHAR 00F8
ENCODING 248
SWIDTH 447 0
DWIDTH 17 0
BBX 0 0 0 0
BITMAP
ENDCHAR
STARTCHAR 00F9
ENCODING 249
SWIDTH 526 0
DWIDTH 20 0
BBX 19 27 0 1
BITMAP
1C0000
3F0000
3FC000
0FE000
03F800
01FC00
007C00
003800
000000
000000
3C0E00
3C0F00
3C0F00
3C0F00
3C0F00
3C0F00
3C0F00
3C0F00
3C0F00
3C0F00
3C0F00
3C0F00
3C1F00
3E7780
7FF3C0
FFE3E0
E3C0E0
ENDCHAR
STARTCHAR 00FA
ENCODING 250
SWIDTH 526 0
DWIDTH 20 0
BBX 19 27 0 1
BITMAP
000E00
001F00
007E00
00FC00
01F000
03E000
03C000
010000
000000
000000
3C0E00
3C0F00
3C0F00
3C0F00
3C0F00
3C0F00
3C0F00
3C0F00
3C0F00
3C0F00
3C0F00
3C0F00
3C1F00
3E7780
7FF3C0
FFE3E0
E3C0E0
ENDCHAR
STARTCHAR 00FB
ENCODING 251
SWIDTH 526 0
DWIDTH 20 0
BBX 19 27 0 0
BITMAP
008000
03E000
03F000
07F800
0F3C00
1E1E00
3C0F00
100000
000000
000000
3C0E00
3C0F00
3C0F00
3C0F00
3C0F00
3C0F00
3C0F00
3C0F00
3C0F00
3C0F00
3C0F00
3C0F00
3C1F00
3E7780
7FF3C0
FFE3E0
E3C0E0
ENDCHAR
STARTCHAR 00FC
ENCODING 252
SWIDTH 526 0
DWIDTH 20 0
BBX 19 25 0 1
BITMAP
1E1E00
3E3E00
3F3E00
1F3E00
0E1C00
000000
000000
000000
3C0E00
3C0F00
3C0F00
3C0F00
3C0F00
3C0F00
3C0F00
3C0F00
3C0F00
3C0F00
3C0F00
3C0F00
3C1F00
3E7780
7FF3C0
FFE3E0
E3C0E0
ENDCHAR
STARTCHAR 00FD
ENCODING 253
SWIDTH 552 0
DWIDTH 21 0
BBX 0 0 0 0
BITMAP
ENDCHAR
STARTCHAR 00FE
ENCODING 254
SWIDTH 526 0
DWIDTH 20 0
BBX 0 0 0 0
BITMAP
ENDCHAR
STARTCHAR 00FF
ENCODING 255
SWIDTH 552 0
DWIDTH 21 0
BBX 20 35 0 -10
BITMAP
079F00
07DF00
07DF00
07DF00
038E00
000000
000000
000000
1C0780
1E0780
1E0780
1E0780
1E0780
1E0780
1E0780
1E0780
1E0780
1E0780
1E0780
1F0F80
1F0F80
1FDF80
3FF780
FFF7F0
7FE7E0
000780
000F80
001FC0
003FC0
003BC0
003BC0
003B80
003F80
001F80
001F00
ENDCHAR
STARTCHAR 0131
ENCODING 305
SWIDTH 263 0
DWIDTH 10 0
BBX 11 19 0 0
BITMAP
0400
1E00
1F00
3E00
1E00
1E00
1E00
1E00
1E00
1E00
1E00
1E00
1E00
1E00
3F00
FFE0
F7E0
E3E0
C0E0
ENDCHAR
STARTCHAR 0141
ENCODING 321
SWIDTH 657 0
DWIDTH 25 0
BBX 0 0 0 0
BITMAP
ENDCHAR
STARTCHAR 0142
ENCODING 322
SWIDTH 289 0
DWIDTH 11 0
BBX 0 0 0 0
BITMAP
ENDCHAR
STARTCHAR 0152
ENCODING 338
SWIDTH 1000 0
DWIDTH 38 0
BBX 0 0 0 0
BITMAP
ENDCHAR
STARTCHAR 0153
ENCODING 339
SWIDTH 631 0
DWIDTH 24 0
BBX 0 0 0 0
BITMAP
ENDCHAR
STARTCHAR 0160
ENCODING 352
SWIDTH 657 0
DWIDTH 25 0
BBX 0 0 0 0
BITMAP
ENDCHAR
STARTCHAR 0161
ENCODING 353
SWIDTH 473 0
DWIDTH 18 0
BBX 0 0 0 0
BITMAP
ENDCHAR
STARTCHAR 0178
ENCODING 376
SWIDTH 894 0
DWIDTH 34 0
BBX 35 50 0 -12
BITMAP
000E1C0000
001F3E0000
001F3E0000
001F3E0000
000F1C0000
0000000000
0000000000
000000F000
07C000F800
1FF001F800
7FF801F800
7FFC00F800
FCFE00F800
F87E00F800
F83E01F800
F03F01F800
F01F01F800
F01F01F800
F81F01F800
F81F01F800
7C1F01F800
7E3F01F800
3E3F03F800
1E3E03FC00
083E03FC00
003E03FC00
003E077C00
003E077C00
003E077C00
003E0F3C00
003E0E3C00
003F1E3C00
003FFE3C00
003FFC3C00
001FF83C60
000FF83FE0
0007F07FE0
0003C1FFE0
000007FE00
00000FFC00
00001FBC00
00003E3C00
00003C7C00
00007C7800
000078F800
00007BF000
00007FF000
00007FC000
00003F8000
00001E0000
ENDCHAR
STARTCHAR 017D
ENCODING 381
SWIDTH 578 0
DWIDTH 22 0
BBX 0 0 0 0
BITMAP
ENDCHAR
STARTCHAR 017E
ENCODING 382
SWIDTH 394 0
DWIDTH 15 0
BBX 0 0 0 0
BITMAP
ENDCHAR
STARTCHAR 0192
ENCODING 402
SWIDTH 763 0
DWIDTH 29 0
BBX 25 27 2 1
BITMAP
000FE000
003FFC00
00FFFE00
01FFFF00
01FC1F00
03F00F00
03E00200
07C00000
07C00000
07C00000
0F800000
0F800000
FFFF0000
FFFF8000
FFFF8000
0F800000
0F800000
0F800000
07C00000
07C00300
07E00780
03F00780
03FE7F80
01FFFF00
00FFFE00
003FFC00
000FF000
ENDCHAR
STARTCHAR 02C6
ENCODING 710
SWIDTH 500 0
DWIDTH 19 0
BBX 13 7 4 18
BITMAP
0300
0F80
1FE0
1FF0
3CF0
7878
F038
ENDCHAR
STARTCHAR 02C7
ENCODING 711
SWIDTH 500 0
DWIDTH 19 0
BBX 14 8 4 18
BITMAP
4018
F03C
F878
7CF0
3FE0
1FC0
0FC0
0780
ENDCHAR
STARTCHAR 02D8
ENCODING 728
SWIDTH 500 0
DWIDTH 19 0
BBX 11 5 6 20
BITMAP
C0E0
E1E0
FFC0
7F80
1F00
ENDCHAR
STARTCHAR 02D9
ENCODING 729
SWIDTH 500 0
DWIDTH 19 0
BBX 4 4 9 20
BITMAP
60
F0
F0
60
ENDCHAR
STARTCHAR 02DA
ENCODING 730
SWIDTH 500 0
DWIDTH 19 0
BBX 9 10 7 18
BITMAP
3C00
7F00
6300
C180
C180
C180
E180
7380
3F00
1E00
ENDCHAR
STARTCHAR 02DB
ENCODING 731
SWIDTH 500 0
DWIDTH 19 0
BBX 8 8 1 -7
BITMAP
38
70
F0
E0
E0
FF
FF
3E
ENDCHAR
STARTCHAR 02DC
ENCODING 732
SWIDTH 500 0
DWIDTH 19 0
BBX 11 6 6 19
BITMAP
0040
18E0
7FE0
FFC0
E380
C000
ENDCHAR
STARTCHAR 02DD
ENCODING 733
SWIDTH 500 0
DWIDTH 19 0
BBX 13 8 5 19
BITMAP
0C20
1E70
3EF8
7DF0
7BE0
F3C0
F780
E780
ENDCHAR
STARTCHAR 0394
ENCODING 916
SWIDTH 684 0
DWIDTH 26 0
BBX 22 30 2 1
BITMAP
002000
007000
007000
00F800
00F800
00F800
00FC00
01FC00
01FC00
01FE00
03DE00
03DE00
03DF00
078F00
078F00
0F8F80
0F8780
0F07C0
0F03C0
1F03C0
1F03E0
1E01E0
3E01F0
3E00F0
3C00F0
7C00F8
7FFFF8
7FFFFC
FFFFFC
7FFFE0
ENDCHAR
STARTCHAR 03A9
ENCODING 937
SWIDTH 789 0
DWIDTH 30 0
BBX 26 27 2 0
BITMAP
003F8000
01FFE000
03FFF800
07FFFC00
0FC0FC00
1F003E00
3E001F00
3C001F00
38000F00
78000F80
70000780
70000780
70000780
70000780
70000780
70000780
78000780
38000780
38000F00
3C000F00
1E001E00
1F003C00
0F80F800
7FE1F000
FFE3FF80
FFE3FFC0
FFC1FF80
ENDCHAR
STARTCHAR 03C0
ENCODING 960
SWIDTH 657 0
DWIDTH 25 0
BBX 23 19 1 0
BITMAP
7FFFFC
FFFFFE
FFFFFC
E3C1E0
E3C1E0
03C1E0
03C1E0
03C1E0
03C1E0
03C1E0
03C1E0
03C1E0
03C1E0
03C1E0
03C1F0
03C1FE
03C0FE
03C07E
03C01E
ENDCHAR
STARTCHAR 2013
ENCODING 8211
SWIDTH 500 0
DWIDTH 19 0
BBX 17 2 1 9
BITMAP
FFFF80
FFFF80
ENDCHAR
STARTCHAR 2014
ENCODING 8212
SWIDTH 1000 0
DWIDTH 38 0
BBX 35 3 1 8
BITMAP
FFFFFFFFC0
FFFFFFFFE0
FFFFFFFFC0
ENDCHAR
STARTCHAR 2018
ENCODING 8216
SWIDTH 263 0
DWIDTH 10 0
BBX 6 10 3 20
BITMAP
18
3C
7C
78
F0
F0
F8
FC
F8
70
ENDCHAR
STARTCHAR 2019
ENCODING 8217
SWIDTH 263 0
DWIDTH 10 0
BBX 6 10 3 17
BITMAP
38
7C
FC
7C
3C
3C
78
F8
F0
60
ENDCHAR
STARTCHAR 201A
ENCODING 8218
SWIDTH 263 0
DWIDTH 10 0
BBX 0 0 0 0
BITMAP
ENDCHAR
STARTCHAR 201C
ENCODING 8220
SWIDTH 421 0
DWIDTH 16 0
BBX 13 10 3 20
BITMAP
1830
3C78
7CF8
78F0
F0E0
F1E0
F9F0
FDF8
F9F8
70E0
ENDCHAR
STARTCHAR 201D
ENCODING 8221
SWIDTH 447 0
DWIDTH 17 0
BBX 13 10 3 17
BITMAP
3830
7CF8
FCF8
7CF8
3C78
3C78
7878
F8F0
F1F0
60E0
ENDCHAR
STARTCHAR 201E
ENCODING 8222
SWIDTH 421 0
DWIDTH 16 0
BBX 0 0 0 0
BITMAP
ENDCHAR
STARTCHAR 2020
ENCODING 8224
SWIDTH 447 0
DWIDTH 17 0
BBX 15 30 2 -3
BITMAP
03C0
03C0
03C0
03C0
03C0
03C0
7FFE
FFFE
7FFE
03C0
03C0
03C0
03C0
03C0
03C0
03C0
03C0
03C0
03C0
03C0
03C0
03C0
03C0
03C0
03C0
03C0
03C0
03C0
03C0
0380
ENDCHAR
STARTCHAR 2021
ENCODING 8225
SWIDTH 473 0
DWIDTH 18 0
BBX 15 33 1 -3
BITMAP
0780
0780
0780
0780
0780
0780
07FC
07FC
FFFE
FFFE
FFFC
0780
0780
0780
0780
0780
0780
0780
0780
7FFC
FFFE
FFFE
7FFC
0780
0780
0780
0780
0780
0780
0780
0780
0780
0300
ENDCHAR
STARTCHAR 2022
ENCODING 8226
SWIDTH 578 0
DWIDTH 22 0
BBX 13 10 4 9
BITMAP
0FC0
3FE0
7FF0
7FF8
FFF8
FFF8
FFF8
7FF0
7FF0
1FC0
ENDCHAR
STARTCHAR 2026
ENCODING 8230
SWIDTH 1000 0
DWIDTH 38 0
BBX 31 6 3 -2
BITMAP
70038038
FC07C07E
FC0FE07E
FC0FE07E
FC0FC07E
7807803C
ENDCHAR
STARTCHAR 2030
ENCODING 8240
SWIDTH 1342 0
DWIDTH 51 0
BBX 50 28 -1 -1
BITMAP
0E000000000000
1F0003C0000000
3E001FE0000000
7C3FFFE0000000
7C7FFFC0000000
787807C0000000
F8F00780000000
F0F00F80000000
F0780F80000000
F0781F00000000
78781F3F00FC00
787C3E7F81FE00
7C7C3EFFC3FF00
3E7C7CFFC3FF00
3FF87CF3E3CF80
1FF87DE1E78780
0FF0F9E0F783C0
03C0F9E0F783C0
0001F1E0F783C0
0001F1E0F783C0
0003F1E0F783C0
0003E1F0F7C3C0
0007E0F0F3C3C0
000FC0FDE3F780
000FC07FE1FF80
001F803FE0FF80
001F801FC07F00
000F0003800E00
ENDCHAR
STARTCHAR 2039
ENCODING 8249
SWIDTH 263 0
DWIDTH 10 0
BBX 8 13 0 2
BITMAP
07
0F
1F
3E
7C
F8
F0
F8
78
3C
1E
0F
0F
ENDCHAR
STARTCHAR 203A
ENCODING 8250
SWIDTH 263 0
DWIDTH 10 0
BBX 8 13 0 2
BITMAP
E0
F0
F8
7C
3E
1F
0F
0F
1E
3C
78
F0
F0
ENDCHAR
STARTCHAR 2044
ENCODING 8260
SWIDTH 157 0
DWIDTH 6 0
BBX 0 0 0 0
BITMAP
ENDCHAR
STARTCHAR 2122
ENCODING 8482
SWIDTH 842 0
DWIDTH 32 0
BBX 22 13 5 19
BITMAP
700000
300000
300000
300000
FCEE70
B06EF0
3037B0
303730
302730
302730
786730
FFE33C
C7E31C
ENDCHAR
STARTCHAR 2202
ENCODING 8706
SWIDTH 526 0
DWIDTH 20 0
BBX 16 25 2 -1
BITMAP
0F80
7FE0
FFF0
F878
603C
001C
001E
000E
000E
1FCF
3FFF
7FFF
7FFF
F83F
F01F
F00F
F007
F00F
F80F
F80E
7E1E
7FFE
3FFC
1FF8
07E0
ENDCHAR
STARTCHAR 220F
ENCODING 8719
SWIDTH 736 0
DWIDTH 28 0
BBX 22 33 2 -5
BITMAP
7FFFF8
7FFFFC
FFFFFC
F8007C
F8003C
F8003C
F8003C
F8003C
F8003C
F8003C
F8003C
F8003C
F8003C
F8003C
F8003C
F8003C
F8003C
F8003C
F8003C
F8003C
F8003C
F8003C
F8003C
F8003C
F8003C
F8003C
F8003C
F8003C
F8003C
F8003C
78003C
78003C
30003C
ENDCHAR
STARTCHAR 2211
ENCODING 8721
SWIDTH 684 0
DWIDTH 26 0
BBX 23 35 1 -9
BITMAP
7FFFFC
7FFFFC
7FFFFC
FFFFFC
FC0000
7E0000
3F0000
1FC000
0FE000
07F000
03F800
01FC00
00FE00
007F00
003F80
000FC0
0007C0
000FC0
000FC0
001F80
003F00
007E00
00FE00
00FC00
01F800
03F000
07F000
0FE000
0FC000
1F8000
3FFFFC
3FFFFE
3FFFFE
1FFFFC
0003FC
ENDCHAR
STARTCHAR 2212
ENCODING 8722
SWIDTH 842 0
DWIDTH 32 0
BBX 24 4 4 10
BITMAP
7FFFFE
FFFFFF
FFFFFF
7FFFFE
ENDCHAR
STARTCHAR 221A
ENCODING 8730
SWIDTH 657 0
DWIDTH 25 0
BBX 29 32 1 -1
BITMAP
00000FF0
00001FF8
00001FF0
00003FF0
00003C00
00003C00
00003C00
00007800
00007800
00007800
00007000
00007000
0000F000
7F00F000
FF00F000
FF80E000
FF80E000
03C1E000
03C1E000
01E1C000
01E1C000
00E1C000
00F3C000
00F3C000
007B8000
007F8000
003F8000
003F8000
003F8000
001F0000
001F0000
001F0000
ENDCHAR
STARTCHAR 221E
ENCODING 8734
SWIDTH 842 0
DWIDTH 32 0
BBX 24 15 3 3
BITMAP
0000F8
1F83FC
3FC7FE
7FEFFE
7BFF87
F0FE03
E07C03
E03E03
E01F03
E03F87
F07FFE
7FF7FE
7FF3FC
3FE1FC
1FC070
ENDCHAR
STARTCHAR 222B
ENCODING 8747
SWIDTH 552 0
DWIDTH 21 0
BBX 19 38 3 -9
BITMAP
003F00
007F80
007FC0
00FFE0
00F1E0
00F0E0
01F0E0
01F000
01F000
01F000
01F000
01F000
01F000
01F000
01F000
01F000
01F000
01F000
01F000
00F000
00F000
00F000
00F000
00F000
00F000
00F000
00F000
00F000
70F000
F0F000
F0F000
F0F000
F9F000
F9F000
7FF000
7FE000
3FC000
078000
ENDCHAR
STARTCHAR 2248
ENCODING 8776
SWIDTH 842 0
DWIDTH 32 0
BBX 27 12 3 7
BITMAP
1FF00380
7FFF07C0
FFFFFFC0
FC3FFF80
E003FE00
00000000
0FF00080
3FFF01E0
7FFFFFE0
7FFFFFC0
7803FF80
00007C00
ENDCHAR
STARTCHAR 2260
ENCODING 8800
SWIDTH 842 0
DWIDTH 32 0
BBX 24 20 4 2
BITMAP
0001C0
0001E0
0003E0
0007C0
000780
FFFFFC
FFFFFE
FFFFFE
003C00
003C00
007C00
007800
00F800
3FFFFF
7FFFFF
03C000
078000
0F8000
0F0000
060000
ENDCHAR
STARTCHAR 2264
ENCODING 8804
SWIDTH 842 0
DWIDTH 32 0
BBX 25 27 3 3
BITMAP
00000C00
00003E00
0000FF00
0003FE00
001FFC00
007FF000
01FF8000
0FFE0000
1FF80000
3FE00000
7F000000
FF000000
FFC00000
7FF80000
1FFE0000
03FF8000
00FFF000
001FFC00
0007FC00
0001FC00
00007C00
00000000
00000000
3FFFFE00
FFFFFF80
FFFFFF80
7FFFFE00
ENDCHAR
STARTCHAR 2265
ENCODING 8805
SWIDTH 842 0
DWIDTH 32 0
BBX 24 26 4 1
BITMAP
FC0000
FF0000
FFE000
7FF800
0FFE00
01FFC0
003FF0
000FF8
0003FC
0000FE
0003FC
000FF8
003FE0
00FF80
07FE00
1FF800
3FE000
3F8000
3E0000
180000
000000
000000
000000
FFFFFF
FFFFFF
FFFFFF
ENDCHAR
STARTCHAR 25CA
ENCODING 9674
SWIDTH 500 0
DWIDTH 19 0
BBX 0 0 0 0
BITMAP
ENDCHAR
STARTCHAR F8FF
ENCODING 63743
SWIDTH 1236 0
DWIDTH 47 0
BBX 42 4 2 8
BITMAP
DB658E436240
EA6D26DD6400
2D953B5B6400
1905AE434400
ENDCHAR
STARTCHAR FB01
ENCODING 64257
SWIDTH 684 0
DWIDTH 26 0
BBX 0 0 0 0
BITMAP
ENDCHAR
STARTCHAR FB02
ENCODING 64258
SWIDTH 684 0
DWIDTH 26 0
BBX 0 0 0 0
BITMAP
ENDCHAR
ENDFONT
